<svg xmlns="http://www.w3.org/2000/svg" width="400" height="400" viewBox="0 0 400 400"><g transform="translate(200, 200) translate(-128, -128) scale(0.5) translate(-144, -144)" fill="#000"><g xmlns="http://www.w3.org/2000/svg" fill="#c79a7b"><path d="m550.32 336.77 23.91-11.125h.21094-.003906c9.9531-5.1484 17.547-13.922 21.219-24.508 3.6719-10.586 3.1406-22.176-1.4844-32.379-4.4336-8.5586-11.918-15.141-20.973-18.441-9.0508-3.3047-19.016-3.0938-27.918.59766-4.6016-8.4922-12.281-14.898-21.461-17.906-9.1758-3.0039-19.16-2.3828-27.891 1.7422-9.9531 5.1445-17.535 13.934-21.168 24.531s-3.0352 22.188 1.6641 32.355v.21094l15.305 30.23v-.003906c-3.3398-.34766-6.6992-.48828-10.055-.41797-24.953-.050781-49.586 5.6211-72.004 16.582-20.668-9.2852-43.07-14.078-65.727-14.062-.73438.0-1.4258.0-2.0977.10547l17.359-46.539c1.3477-3.5977.48047-7.6484-2.2266-10.371l-36.484-36.758c-2.5586-2.582-6.3398-3.543-9.8242-2.4961l-79.305 23.805c-3.4844 1.0469-6.1055 3.9297-6.8242 7.4922l-10.16 50.738c-.75781 3.7695.75391 7.6289 3.8633 9.8867l39.676 28.949c-47.738 29.676-76.797 81.875-76.875 138.09-.0625 25.453 5.9102 50.559 17.426 73.262 13.477 27.02 34.246 49.73 59.949 65.566 25.707 15.84 55.328 24.176 85.523 24.07 23.68-.058594 47.055-5.3203 68.477-15.41h.1875c51.566 24.316 112.1 19.859 159.54-11.754 17.273-11.504 32.281-26.094 44.27-43.035 18.332-26.371 28.535-57.531 29.352-89.637.82031-32.109-7.7852-63.75-24.75-91.02-16.965-27.27-41.543-48.973-70.703-62.43zm-56.258-53.531-.003906.003907c-2.3789-5.5742-2.582-11.84-.5625-17.555 2.0156-5.7148 6.1055-10.461 11.457-13.305.0-.11719.097657-.21094.21094-.21094 4.5039-1.6602 9.4648-1.5664 13.902.26172s8.0234 5.2539 10.051 9.6055l.21094.62891c1.6523 4.0391 4.8164 7.2773 8.8164 9.0273 4.2734 1.2109 8.8633.52344 12.594-1.8906l.44141-.21094v.003906c4.3633-2.2227 9.418-2.6797 14.109-1.2695 4.6914 1.4062 8.6602 4.5664 11.082 8.8242 2.4766 5.5391 2.7461 11.816.75781 17.551-1.9883 5.7344-6.0898 10.492-11.465 13.309l-41.562 19.312c-2.7305-.83984-5.668-1.4688-8.6289-2.0977zm-251.38-14.168 67.992-20.402 20.738 20.992-94.465 28.383zm3.1719 46.75 87.934-26.406-13.707 36.715c-14.828 2.1758-29.277 6.4141-42.93 12.594zm16.793 289.33c-19.738-13.758-35.754-32.199-46.602-53.676-10.121-19.957-15.367-42.027-15.305-64.402.042968-37.965 15.148-74.359 41.996-101.2 26.848-26.84 63.246-41.934 101.21-41.969 21.457-.082031 42.645 4.7422 61.949 14.109 39.824 18.996 68.613 55.359 77.961 98.484 9.3516 43.121-1.7852 88.145-30.164 121.93-8.5781-2.5625-16.746-6.3555-24.246-11.25 28.703-30.484 38.965-73.961 26.922-114.06-12.039-40.102-44.555-70.734-85.301-80.367-.46094-.125-.90234-.29297-1.3633-.39844-34.809-7.75-71.254.71875-99.078 23.027-27.824 22.305-44.016 56.035-44.023 91.695.03125 27.059 9.4102 53.273 26.555 74.207 7.8477 9.7695 17.293 18.137 27.938 24.75 18.746 12.047 40.57 18.426 62.852 18.367 7.3945-.046876 14.762-.82813 22-2.332l.27344.25v.003906c7.2812 7.5938 15.41 14.328 24.223 20.066-42.953 14.281-90.098 7.918-127.73-17.234zm211.14-216.22c2.5625-.1875 5.082-.46094 7.8281-.46094h.003907c25.824.027344 50.582 10.301 68.844 28.562 18.258 18.258 28.531 43.016 28.559 68.844.03125 17.277-4.5703 34.246-13.332 49.141-4.4258 7.5-9.8242 14.383-16.059 20.469-19.574 19.391-46.574 29.375-74.059 27.395 20.676-28.195 31.691-62.312 31.402-97.273-.29297-34.961-11.875-68.895-33.02-96.738zm-60.98 28.992c18.305 18.07 28.641 42.699 28.719 68.422.078124 25.719-10.105 50.41-28.301 68.594-18.5-18.246-28.926-43.141-28.945-69.129.10547-25.52 10.371-49.949 28.527-67.887zm-64.195-27.961c-20.66 28.258-31.641 62.43-31.312 97.434.32812 35 11.953 68.961 33.141 96.828-20.68 1.418-41.27-3.7969-58.777-14.887-8.7969-5.4922-16.602-12.422-23.094-20.508-15.68-19.141-23.496-43.527-21.867-68.219 1.6289-24.691 12.578-47.84 30.637-64.754 18.059-16.918 41.871-26.34 66.613-26.355 1.6172.0 3.0664.375 4.6602.46094zm251.68 178.56c-10.574 14.961-23.816 27.844-39.066 37.996-43.137 28.082-97.902 31.277-144.01 8.3945-.5-.17969-.99219-.38672-1.4688-.62891-14.316-7.1016-27.254-16.699-38.207-28.34l-.16797-.21094c-.1875-.25-.37891-.48438-.58594-.71484l-.29297-.28906-1.0273-1.0508h-.003907c-23.918-25.648-37.582-59.191-38.398-94.25-.81641-35.062 11.273-69.203 33.973-95.938 9.1602 2.6016 17.891 6.5391 25.902 11.691-22.488 23.527-34.148 55.363-32.172 87.848 1.9766 32.484 17.41 62.676 42.586 83.301 13.418 11.141 29.219 19.039 46.18 23.09h.16797l.88281.27344c34.852 8.2734 71.574.14844 99.68-22.055 28.109-22.207 44.516-56.047 44.535-91.867-.03125-31.059-12.383-60.832-34.344-82.793s-51.734-34.312-82.793-34.344c-7.8477.019531-15.676.875-23.34 2.5625-8.0273-7.8984-16.859-14.934-26.348-20.992 15.906-5.875 32.734-8.8555 49.688-8.7969 6.957-.085937 13.91.47656 20.762 1.6797 7.793.98047 15.465 2.7383 22.902 5.2461 43.734 13.902 78.27 47.746 93.055 91.188 14.785 43.445 8.0625 91.328-18.113 129.02z" fill="#c79a7b" id="svg-el-0"/><path d="m251.38 208.78c1.25 4.1523 5.0664 7 9.4023 7.0117.9375-.003907 1.8711-.13672 2.7734-.39844 5.2031-1.5664 8.1602-7.0508 6.6133-12.258l-9.1953-30.883c-1.5586-5.2148-7.0547-8.1797-12.27-6.6211-5.2188 1.5586-8.1836 7.0508-6.625 12.27z" fill="#c79a7b" id="svg-el-1"/><path d="m192.81 241.57c4.4102-.011718 8.2773-2.957 9.457-7.207 1.1836-4.25-.60547-8.7656-4.3789-11.055l-28.801-17.359c-4.5898-2.3008-10.176-.6875-12.832 3.707-2.6562 4.3906-1.4961 10.086 2.6719 13.086l28.801 17.359c1.5312.9375 3.2852 1.4453 5.082 1.4688z" fill="#c79a7b" id="svg-el-2"/><path d="m327.49 198.89c4.8984 2.3164 10.75.25781 13.121-4.6172l14.484-30.375c1.8867-4.8203-.28125-10.277-4.9609-12.492-4.6797-2.2109-10.273-.42188-12.801 4.0938l-14.484 30.332c-2.2969 4.8906-.22656 10.715 4.6406 13.059z" fill="#c79a7b" id="svg-el-3"/></g></g></svg>