<svg xmlns="http://www.w3.org/2000/svg" width="400" height="400" viewBox="0 0 400 400"><g transform="translate(200, 200) translate(-128, -128) scale(0.5) translate(-144, -144)" fill="#000"><g xmlns="http://www.w3.org/2000/svg" fill="#c79a7b"><path d="m585.52 4e2c0-11.801-1.1211-23.34-3.2383-34.535-.035156-.25-.082031-.49219-.14062-.73438-4.2188-21.836-12.27-42.324-23.438-60.723-.28125-.625-.65234-1.2109-1.0898-1.75-15.922-25.582-37.891-47.02-63.895-62.309-.54688-.42578-1.1445-.77344-1.7812-1.043-17.52-10.039-36.828-17.293-57.312-21.176l-2.9609-15.152c-2.1602-11.059-11.91-19.086-23.18-19.086h-.61719v-25.301c0-4.3477-3.5234-7.8711-7.8711-7.8711s-7.8711 3.5234-7.8711 7.8711v25.297h-1.7422c-11.27.0-21.016 8.0273-23.18 19.086l-3.0039 15.375c-20.055 3.9375-38.965 11.105-56.152 20.953-.63281.26953-1.2305.61719-1.7734 1.0391-26.004 15.285-47.969 36.719-63.887 62.297-.44531.54297-.82031 1.1367-1.1055 1.7734-11.176 18.41-19.227 38.914-23.441 60.77-.046875.20312-.089844.41406-.12109.62109-2.125 11.219-3.25 22.777-3.25 34.598.0 8.4102.57422 16.684 1.6641 24.801.015625.12109.027343.24609.050781.36719 2.8125 20.637 9.0273 40.203 18.062 58.117.23438.66016.55078 1.293.95312 1.8711 17.023 32.812 43.562 59.93 75.938 77.668.5.35547 1.043.63672 1.6094.86719 17.707 9.4766 37.117 16.16 57.645 19.465.19922.042969.39844.074219.60156.10156 9.4492 1.4883 19.133 2.2695 28.996 2.2695 9.8633.0 19.547-.78125 29-2.2734.20312-.027344.40234-.058594.60156-.10156 20.531-3.3047 39.941-9.9883 57.648-19.465.56641-.22656 1.1055-.51172 1.6094-.86328 32.383-17.742 58.922-44.863 75.945-77.684.39453-.57031.70703-1.1953.94141-1.8477 9.0391-17.914 15.258-37.484 18.07-58.129.023437-.12109.035156-.24609.050781-.36719 1.0898-8.1133 1.6641-16.391 1.6641-24.797zm-32.949 74.418c-12.945 4.8984-25.914 9.1719-38.898 12.82 3.6914-16.785 6.3867-33.582 8.0664-50.34 14.977-1.1875 29.934-2.5938 44.867-4.2188-2.8711 14.672-7.6367 28.672-14.035 41.738zm-115.55 91.285c1.8047-16.219 3.3438-32.465 4.6328-48.73 16.766-1.6797 33.562-4.3711 50.348-8.0586-3.9219 13.961-8.5664 27.906-13.934 41.824-12.82 6.6602-26.59 11.734-41.047 14.965zm5.8242-64.797c1.3711-19.938 2.3477-39.902 2.9414-59.879 19.98-.59375 39.945-1.5781 59.883-2.9492-1.8867 17.891-4.9531 35.773-9.2031 53.629-17.848 4.2461-35.727 7.3125-53.621 9.1992zm-120.92 49.824c-5.3672-13.918-10.012-27.859-13.934-41.824 16.785 3.6914 33.582 6.3789 50.348 8.0586 1.2891 16.266 2.8281 32.516 4.6328 48.73-14.461-3.2227-28.23-8.2969-41.047-14.965zm-18.406-59.027c-4.25-17.855-7.3125-35.734-9.2031-53.629 19.938 1.3711 39.906 2.3555 59.883 2.9492.59375 19.977 1.5703 39.941 2.9414 59.879-17.887-1.8828-35.77-4.9492-53.621-9.1992zm-70.137-59.027c14.934 1.625 29.891 3.0352 44.867 4.2188 1.6797 16.758 4.375 33.555 8.0664 50.34-12.984-3.6484-25.953-7.9219-38.898-12.82-6.3984-13.062-11.164-27.062-14.035-41.738zm20.473-119.01c10.801-3.918 21.621-7.4023 32.449-10.445-3.6836 16.773-6.3672 33.57-8.0508 50.34-14.242 1.1289-28.469 2.4531-42.668 3.9766 4.0352-15.602 10.246-30.336 18.27-43.871zm108.06-79.141c-1.3633 12.969-2.5508 25.957-3.5781 38.961-16.773 1.6797-33.574 4.3672-50.363 8.0586 2.8047-9.9766 5.9805-19.938 9.5273-29.891 13.746-7.6797 28.664-13.508 44.414-17.129zm120.58 17.129c3.543 9.9492 6.7227 19.914 9.5273 29.891-16.785-3.6914-33.59-6.375-50.363-8.0586-1.0312-13.004-2.2188-25.992-3.5781-38.961 15.75 3.6211 30.664 9.4492 44.414 17.129zm81.906 105.88c-14.203-1.5273-28.426-2.8477-42.668-3.9766-1.6797-16.77-4.3633-33.562-8.0508-50.34 10.832 3.043 21.648 6.5273 32.449 10.445 8.0312 13.535 14.238 28.27 18.27 43.871zm-334.18 42.461c0-8.9258.69531-17.688 2.0312-26.246 14.883-1.6484 29.793-3.0781 44.723-4.2852-.66406 10.664-.92578 21.309-.76953 31.926.097656 6.5234.34766 13.059.75391 19.602-15.332-1.2422-30.645-2.7148-45.93-4.4219-.53125-5.457-.80859-10.984-.80859-16.574zm62.727-31.746c20.266-1.4258 40.559-2.4414 60.867-3.0586-.39062 20.02-.38672 40.043.003906 60.066-20.305-.61328-40.598-1.6328-60.859-3.0586-1.1953-17.984-1.2031-35.973-.011719-53.949zm76.625-3.4531c20.281-.40234 40.574-.40234 60.855.0.40234 20.281.40234 40.57-.003906 60.855-20.281.40234-40.57.40234-60.852.0-.40234-20.285-.40234-40.574.0-60.855zm52.465-132.2c1.4141 13.18 2.6602 26.379 3.7266 39.594-8.6055-.53516-17.195-.80859-25.766-.80859-8.5703.0-17.16.27344-25.762.80859 1.0703-13.215 2.3125-26.414 3.7266-39.594zm4.9375 55.574c1.4258 20.262 2.4414 40.559 3.0586 60.867-20.02-.39062-40.047-.39062-60.062.0.61328-20.309 1.6328-40.605 3.0586-60.867 17.977-1.1914 35.965-1.1914 53.945.0zm19.211 77.016c20.309.61328 40.605 1.6328 60.867 3.0586 1.1914 17.977 1.1836 35.965-.011719 53.949-20.262 1.4258-40.555 2.4453-60.859 3.0586.39062-20.02.39453-40.047.003906-60.066zm76.844 4.2695c14.93 1.207 29.84 2.6367 44.723 4.2852 1.332 8.5586 2.0312 17.32 2.0312 26.246.0 5.5898-.28125 11.117-.80859 16.57-15.285 1.707-30.598 3.1797-45.93 4.4219.40625-6.543.66016-13.078.75391-19.598.15625-10.613-.10547-21.262-.76953-31.926zm-17.34-17.082c-19.941-1.3711-39.914-2.3555-59.895-2.9492-.59375-19.977-1.5664-39.941-2.9336-59.871 17.895 1.8867 35.777 4.957 53.629 9.207 4.2461 17.844 7.3164 35.723 9.1992 53.613zm-148.55-62.824c-1.3711 19.934-2.3438 39.898-2.9336 59.875-19.984.59375-39.953 1.5781-59.895 2.9492 1.8828-17.891 4.9531-35.77 9.2031-53.613 17.848-4.2539 35.73-7.3242 53.625-9.2109zm12.828 151.85c10.008.19531 20.02.30078 30.031.30078s20.023-.10547 30.031-.30078c-.61328 20.305-1.6367 40.594-3.0625 60.859-17.977 1.1914-35.961 1.1914-53.941.0-1.4219-20.266-2.4453-40.555-3.0586-60.859zm160.82-149.55c-7.0938-2.2148-14.199-4.25-21.309-6.1094-1.7461-6.6836-3.6523-13.363-5.7148-20.035 9.9414 7.7031 19.012 16.469 27.023 26.145zm-140.4-92.621h18.105c3.7578.0 7.0078 2.6758 7.7266 6.3633l1.9102 9.7656c-5.9648-.58203-12.012-.89062-18.125-.89062-6.5078.0-12.934.33984-19.27.99609l1.9297-9.8711c.71875-3.6875 3.9688-6.3633 7.7227-6.3633zm-94.148 66.48c-2.0625 6.6719-3.9688 13.348-5.7148 20.035-7.1094 1.8594-14.215 3.8906-21.309 6.1094 8.0156-9.6797 17.082-18.445 27.023-26.145zm-36.523 229.8c10.25 3.4375 20.523 6.4961 30.809 9.1836 2.8516 10.902 6.125 21.789 9.8164 32.656-15.816-11.508-29.582-25.672-40.625-41.84zm119.43 72.977c-1.9141-16.715-3.5508-33.461-4.9102-50.234 8.6016.53516 17.191.80859 25.766.80859 8.5703.0 17.16-.27344 25.766-.80859-1.3555 16.77-2.9961 33.52-4.9102 50.234-6.8359.83984-13.797 1.2812-20.855 1.2812-7.0625.003906-14.02-.4375-20.855-1.2812zm120.52-31.137c3.6914-10.867 6.9648-21.754 9.8164-32.656 10.285-2.6875 20.559-5.75 30.809-9.1836-11.043 16.168-24.805 30.332-40.625 41.84z" fill="#c79a7b" id="svg-el-0"/><path d="m177.65 392.39h-19.715c-4.3477.0-7.8711 3.5234-7.8711 7.8711.0 4.3477 3.5234 7.8711 7.8711 7.8711h19.711c4.3477.0 7.8711-3.5234 7.8711-7.8711.003906-4.3477-3.5234-7.8711-7.8672-7.8711z" fill="#c79a7b" id="svg-el-1"/><path d="m237.02 248.52c1.5391 1.5352 3.5508 2.3047 5.5664 2.3047s4.0273-.76953 5.5664-2.3047c3.0742-3.0742 3.0742-8.0586.0-11.133l-13.941-13.941c-3.0742-3.0742-8.0586-3.0742-11.133.0s-3.0742 8.0586.0 11.133z" fill="#c79a7b" id="svg-el-2"/><path d="m557.04 250.46c2.0156.0 4.0273-.76953 5.5664-2.3047l13.938-13.938c3.0742-3.0742 3.0742-8.0586.0-11.133-3.0742-3.0742-8.0586-3.0742-11.133.0l-13.938 13.938c-3.0742 3.0742-3.0742 8.0586.0 11.133 1.5352 1.5352 3.5508 2.3047 5.5664 2.3047z" fill="#c79a7b" id="svg-el-3"/><path d="m642.06 391.87h-19.711c-4.3477.0-7.8711 3.5234-7.8711 7.8711.0 4.3477 3.5234 7.8711 7.8711 7.8711h19.711c4.3477.0 7.8711-3.5234 7.8711-7.8711.0-4.3477-3.5234-7.8711-7.8711-7.8711z" fill="#c79a7b" id="svg-el-4"/><path d="m562.98 551.47c-3.0742-3.0742-8.0586-3.0742-11.133.0-3.0742 3.0742-3.0742 8.0586.0 11.133l13.938 13.938c1.5391 1.5352 3.5508 2.3047 5.5664 2.3047s4.0273-.76953 5.5664-2.3047c3.0742-3.0742 3.0742-8.0586.0-11.133z" fill="#c79a7b" id="svg-el-5"/><path d="m400.26 614.48c-4.3477.0-7.8711 3.5234-7.8711 7.8711v19.715c0 4.3477 3.5234 7.8711 7.8711 7.8711 4.3477.0 7.8711-3.5234 7.8711-7.8711v-19.711c0-4.3477-3.5234-7.875-7.8711-7.875z" fill="#c79a7b" id="svg-el-6"/><path d="m237.39 551.84-13.938 13.938c-3.0742 3.0742-3.0742 8.0586.0 11.133 1.5391 1.5352 3.5508 2.3047 5.5664 2.3047s4.0273-.76953 5.5664-2.3047l13.938-13.938c3.0742-3.0742 3.0742-8.0586.0-11.133-3.0742-3.0703-8.0586-3.0703-11.133.0z" fill="#c79a7b" id="svg-el-7"/></g></g></svg>