<svg xmlns="http://www.w3.org/2000/svg" width="400" height="400" viewBox="0 0 400 400"><g transform="translate(200, 200) translate(-128, -128) scale(0.5) translate(-144, -144)" fill="#000"><g xmlns="http://www.w3.org/2000/svg" fill="#c79a7b"><path d="m548.88 346.36c-7.4258.0-14.488 2.1719-20.461 6.2109-5.9688-4.0391-13.035-6.2109-20.461-6.2109-9.8242.0-18.973 3.7852-25.734 10.625-14.227 14.227-14.227 37.371.0 51.602l40.848 40.848c1.4766 1.4766 3.4102 2.2109 5.3438 2.2109s3.8711-.73438 5.3438-2.2109l40.848-40.848c14.227-14.227 14.227-37.371.03125-51.57-6.7852-6.875-15.934-10.656-25.758-10.656zm15.051 51.539-35.512 35.504-35.504-35.504c-4.0039-4.0039-6.2109-9.375-6.2109-15.113.0-5.7383 2.207-11.109 6.2461-15.145 3.9297-3.9805 9.2656-6.168 15.012-6.168 5.75.0 11.117 2.2031 15.113 6.1953 2.9531 2.9531 7.7344 2.9531 10.688.0 3.9961-3.9961 9.3672-6.1953 15.113-6.1953 5.7539.0 11.082 2.1914 15.047 6.1953 8.3398 8.3359 8.3398 21.898.007813 30.23z" fill="#c79a7b" id="svg-el-0"/><path d="m612.91 230.51h-37.973v-23.715c0-12.469-10.148-22.609-22.609-22.609-12.465.0-22.609 10.148-22.609 22.609v23.715H473.09v-23.715c0-12.469-10.148-22.609-22.609-22.609-12.465.0-22.609 10.148-22.609 22.609v23.715h-55.738v-23.715c0-12.469-10.148-22.609-22.609-22.609-12.465.0-22.609 10.148-22.609 22.609v23.715h-56.625v-23.715c0-12.469-10.148-22.609-22.609-22.609-12.465.0-22.609 10.148-22.609 22.609v23.715h-37.98c-11.777.0-21.363 9.6484-21.363 21.508v342.28c0 11.859 9.582 21.508 21.363 21.508h425.82c11.777.0 21.363-9.6484 21.363-21.508l-.003907-342.28c0-11.859-9.582-21.508-21.359-21.508zm-68.086-23.715c0-4.1367 3.3594-7.4961 7.4961-7.4961 4.1367.0 7.4961 3.3594 7.4961 7.4961v62.539c0 4.1367-3.3594 7.4961-7.4961 7.4961-4.1367.0-7.4961-3.3594-7.4961-7.4961zm-101.85.0c0-4.1367 3.3594-7.4961 7.4961-7.4961s7.4961 3.3594 7.4961 7.4961v62.539c0 4.1367-3.3594 7.4961-7.4961 7.4961s-7.4961-3.3594-7.4961-7.4961zm-100.96.0c0-4.1367 3.3594-7.4961 7.4961-7.4961s7.4961 3.3594 7.4961 7.4961v62.539c0 4.1367-3.3594 7.4961-7.4961 7.4961s-7.4961-3.3594-7.4961-7.4961zm-101.84.0c0-4.1367 3.3594-7.4961 7.4961-7.4961s7.4961 3.3594 7.4961 7.4961v62.539c0 4.1367-3.3594 7.4961-7.4961 7.4961s-7.4961-3.3594-7.4961-7.4961zm-53.086 38.828h37.973v23.715c0 12.469 10.148 22.609 22.609 22.609 12.465.0 22.609-10.148 22.609-22.609v-23.715h56.617v23.715c0 12.469 10.148 22.609 22.609 22.609 12.469.0 22.609-10.148 22.609-22.609v-23.715h55.73v23.715c0 12.469 10.141 22.609 22.609 22.609s22.609-10.148 22.609-22.609v-23.715h56.617v23.715c0 12.469 10.148 22.609 22.609 22.609 12.465.0 22.609-10.148 22.609-22.609v-23.715h37.973c3.4453.0 6.2461 2.8672 6.2461 6.3945v52.297h-438.31v-52.297c.03125-3.5234 2.832-6.3945 6.2812-6.3945zm425.82 355.07h-425.82c-3.4453.0-6.2461-2.8672-6.2461-6.3945l-.003906-274.87h438.31v274.87c.003906 3.5273-2.7969 6.3945-6.2422 6.3945z" fill="#c79a7b" id="svg-el-1"/><path d="m350.94 352.03h-32.953c-4.1758.0-7.5586 3.3789-7.5586 7.5586v32.953c0 4.1758 3.3789 7.5586 7.5586 7.5586h32.953c4.1758.0 7.5586-3.3789 7.5586-7.5586v-32.953c0-4.1719-3.3867-7.5586-7.5586-7.5586zm-7.5547 32.957h-17.84v-17.84h17.84z" fill="#c79a7b" id="svg-el-2"/><path d="m437.73 352.03h-32.953c-4.1758.0-7.5586 3.3789-7.5586 7.5586v32.953c0 4.1758 3.3789 7.5586 7.5586 7.5586h32.953c4.1758.0 7.5586-3.3789 7.5586-7.5586v-32.953c-.003906-4.1719-3.3828-7.5586-7.5586-7.5586zm-7.5586 32.957h-17.84v-17.84h17.84z" fill="#c79a7b" id="svg-el-3"/><path d="m264.15 429.88h-32.953c-4.1758.0-7.5586 3.3789-7.5586 7.5586v32.953c0 4.1758 3.3789 7.5586 7.5586 7.5586h32.953c4.1758.0 7.5586-3.3789 7.5586-7.5586v-32.953c-.003907-4.1758-3.3828-7.5586-7.5586-7.5586zm-7.5586 32.957h-17.84v-17.84h17.84z" fill="#c79a7b" id="svg-el-4"/><path d="m350.94 429.88h-32.953c-4.1758.0-7.5586 3.3789-7.5586 7.5586v32.953c0 4.1758 3.3789 7.5586 7.5586 7.5586h32.953c4.1758.0 7.5586-3.3789 7.5586-7.5586v-32.953c0-4.1758-3.3867-7.5586-7.5586-7.5586zm-7.5547 32.957h-17.84v-17.84h17.84z" fill="#c79a7b" id="svg-el-5"/><path d="m437.73 429.88h-32.953c-4.1758.0-7.5586 3.3789-7.5586 7.5586v32.953c0 4.1758 3.3789 7.5586 7.5586 7.5586h32.953c4.1758.0 7.5586-3.3789 7.5586-7.5586v-32.953c-.003906-4.1758-3.3828-7.5586-7.5586-7.5586zm-7.5586 32.957h-17.84v-17.84h17.84z" fill="#c79a7b" id="svg-el-6"/><path d="m264.15 507.73h-32.953c-4.1758.0-7.5586 3.3789-7.5586 7.5586v32.953c0 4.1758 3.3789 7.5586 7.5586 7.5586h32.953c4.1758.0 7.5586-3.3789 7.5586-7.5586v-32.953c-.003907-4.1719-3.3828-7.5586-7.5586-7.5586zm-7.5586 32.957h-17.84v-17.84h17.84z" fill="#c79a7b" id="svg-el-7"/><path d="m350.94 507.73h-32.953c-4.1758.0-7.5586 3.3789-7.5586 7.5586v32.953c0 4.1758 3.3789 7.5586 7.5586 7.5586h32.953c4.1758.0 7.5586-3.3789 7.5586-7.5586v-32.953c0-4.1719-3.3867-7.5586-7.5586-7.5586zm-7.5547 32.957h-17.84v-17.84h17.84z" fill="#c79a7b" id="svg-el-8"/><path d="m437.73 507.73h-32.953c-4.1758.0-7.5586 3.3789-7.5586 7.5586v32.953c0 4.1758 3.3789 7.5586 7.5586 7.5586h32.953c4.1758.0 7.5586-3.3789 7.5586-7.5586v-32.953c-.003906-4.1719-3.3828-7.5586-7.5586-7.5586zm-7.5586 32.957h-17.84v-17.84h17.84z" fill="#c79a7b" id="svg-el-9"/></g></g></svg>