<svg xmlns="http://www.w3.org/2000/svg" width="400" height="400" viewBox="0 0 400 400"><defs xmlns="http://www.w3.org/2000/svg"><clipPath id="a"><path d="m148.09 148.09H651V651H148.09z"/></clipPath></defs><g transform="translate(200, 200) translate(-128, -128) scale(0.5) translate(-144, -144)"><g xmlns="http://www.w3.org/2000/svg" clip-path="url(#a)" fill="#c79a7b"><path d="m609.29 197.2h-46.77c.59375-11.883-3.4219-23.535-11.207-32.531-7.7891-8.9922-18.746-14.637-30.59-15.75-11.84 1.1172-22.789 6.7656-30.574 15.758-7.7812 8.9961-11.793 20.645-11.199 32.523h-29.117c.59375-11.883-3.4219-23.535-11.207-32.531-7.7852-8.9922-18.742-14.637-30.586-15.75-11.84 1.1172-22.793 6.7656-30.574 15.758-7.7812 8.9961-11.793 20.645-11.199 32.523H337.15c.59375-11.883-3.4219-23.535-11.207-32.531-7.7891-8.9922-18.746-14.637-30.59-15.75-11.844 1.1133-22.801 6.7578-30.586 15.75-7.7852 8.9961-11.801 20.648-11.207 32.531-10.809.41016-21.039 4.9922-28.543 12.777-7.5078 7.7891-11.707 18.18-11.719 28.996v280.2h-54.707c-5.2969.0-9.5938 4.293-9.5938 9.5938v32.203-.003906c-.003906 11.074 4.3828 21.699 12.203 29.539 7.8203 7.8398 18.434 12.254 29.508 12.277h22.59v38.625c0 5.3008 4.293 9.5938 9.5898 9.5938h386.4c2.5469.007812 4.9883-1.0039 6.7891-2.8047 1.8008-1.7969 2.8086-4.2422 2.8047-6.7891v-22.523h22.523c2.5469.003907 4.9922-1.0039 6.7891-2.8047 1.8008-1.8008 2.8125-4.2422 2.8047-6.7891v-370.28c.007812-11.074-4.3828-21.699-12.203-29.539s-18.434-12.258-29.508-12.277zm-88.566-29.074c12.09.0 21.98 12.91 22.586 29.074h-45.133c.61328-16.164 10.477-29.074 22.547-29.074zm-112.68.0c12.07.0 21.957 12.91 22.566 29.074h-45.133c.60938-16.164 10.496-29.074 22.566-29.074zm-112.68.0c12.07.0 21.957 12.91 22.566 29.074h-45.137c.60938-16.164 10.496-29.074 22.566-29.074zm-62.832 70.891c.007812-5.9961 2.3945-11.746 6.6367-15.98 4.2461-4.2383 9.9961-6.6133 15.992-6.6094h1.1992c2.2461 8.8164 7.2422 16.684 14.262 22.473 7.0195 5.7852 15.699 9.1836 24.781 9.7109h1.5312v-19.211h-1.5742c-3.9414-.28516-7.7344-1.6484-10.961-3.9336s-5.7656-5.4102-7.3438-9.0391h91.945c2.2422 8.8203 7.2383 16.691 14.258 22.477 7.0234 5.7891 15.703 9.1875 24.789 9.707h1.5742v-19.211h-1.5742c-3.9453-.28906-7.7383-1.6484-10.969-3.9336-3.2305-2.2852-5.7734-5.4102-7.3594-9.0391h91.969c2.2461 8.8164 7.2422 16.684 14.266 22.473 7.0195 5.7852 15.695 9.1836 24.777 9.7109h1.5547v-19.211h-1.5547c-3.9453-.28906-7.7383-1.6484-10.969-3.9336-3.2266-2.2852-5.7734-5.4102-7.3555-9.0391h71.836c-4.4219 6.707-6.7852 14.559-6.8047 22.59v22.566h-334.91zm0 41.816h334.95v280.14c0 8.0703-4.3047 15.527-11.293 19.562-6.9883 4.0352-15.598 4.0352-22.586.0-6.9922-4.0352-11.297-11.492-11.297-19.562v-32.746c0-2.3984-.95312-4.7031-2.6484-6.3984-1.6953-1.6953-4-2.6484-6.3984-2.6484h-280.73zm-41.816 302.75c-5.9883-.011719-11.73-2.3984-15.965-6.6367-4.2344-4.2383-6.6172-9.9805-6.6211-15.973v-22.566h334.95v22.566c-.023437 8.0234 2.2891 15.879 6.6523 22.609zm441.15 16.078h-12.973v-360.64c.12109-2.625-.83594-5.1875-2.6484-7.0898-1.8125-1.8984-4.3281-2.9766-6.957-2.9766-2.625.0-5.1406 1.0781-6.9531 2.9766-1.8164 1.9023-2.7734 4.4648-2.6484 7.0898v392.84h-367.15v-29.074h312.32c11.082-.015625 21.707-4.4258 29.543-12.266 7.8359-7.8398 12.242-18.465 12.254-29.551V239.02c0-8.0703 4.3047-15.527 11.293-19.562 6.9883-4.0352 15.598-4.0352 22.586.0 6.9883 4.0352 11.293 11.492 11.293 19.562z" fill="#c79a7b" id="svg-el-1"/></g><path xmlns="http://www.w3.org/2000/svg" d="m486.55 379.18c2.75-19.836-3.7305-39.836-17.59-54.285-10.527-10.879-25.25-16.66-40.367-15.852-14.898.67188-29.059 6.6836-39.887 16.941l-.73438.67188-.88281.82031-.90234-.83984-.69141-.65234c-10.824-10.258-24.984-16.273-39.883-16.941-15.113-.8125-29.836 4.9609-40.367 15.828-11.688 12.277-18.203 28.574-18.203 45.523.0 16.945 6.5156 33.246 18.203 45.52l.25.23047 74.836 72.023c3.8203 3.668 9.8477 3.668 13.668.0l25.066-24.184 25.02 24.184c3.8164 3.668 9.8477 3.668 13.664.0l43.117-41.648.23047-.23047h.003906c7.4922-7.8633 11.676-18.312 11.676-29.18.0-10.863-4.1836-21.312-11.676-29.176-4.0156-4.1211-9.0273-7.1367-14.551-8.7539zm-99.375 88.312-67.742-65.391c-8.1211-8.5977-12.633-19.98-12.609-31.809.023438-11.824 4.582-23.191 12.738-31.754 7.2773-6.5586 16.816-10.035 26.609-9.6953 9.7891.33984 19.066 4.4727 25.867 11.52l.71484.65234c4.9531 4.6406 8.543 7.9961 14.336 7.9961h.003906c5.6523-.63281 10.812-3.5156 14.316-7.9961l.71484-.67188h-.003906c6.8125-7.043 16.09-11.164 25.883-11.5 9.7891-.33203 19.328 3.1523 26.598 9.7148 10.238 10.719 14.664 25.727 11.883 40.285-5.7812 1.4453-11.16 4.1719-15.742 7.9766-7.0039-6.1289-16.051-9.4023-25.352-9.1836-9.3008.22266-18.18 3.9258-24.883 10.379-7.4766 7.8711-11.645 18.312-11.645 29.168.0 10.855 4.168 21.297 11.645 29.168l.23047.25 3.9453 3.8008zm99.922-34.91-36.168 34.91-36.234-34.91c-3.8594-4.2266-5.9922-9.7539-5.9727-15.48.015625-5.7266 2.1875-11.238 6.0781-15.441 3.4609-2.9922 7.9453-4.5391 12.516-4.3125s8.8789 2.207 12.023 5.5312l.41797.39844h.003906c2.5547 3.5859 6.6875 5.7148 11.094 5.7148s8.5391-2.1289 11.094-5.7148l.44141-.39844c3.1523-3.3203 7.4609-5.2969 12.031-5.5195 4.5703-.22266 9.0508 1.3242 12.508 4.3242 3.9102 4.1836 6.0938 9.6875 6.125 15.414s-2.0938 11.258-5.957 15.484z" fill="#c79a7b" id="svg-el-2"/></g></svg>