<svg xmlns="http://www.w3.org/2000/svg" width="400" height="400" viewBox="0 0 400 400"><g transform="translate(200, 200) translate(-128, -128) scale(0.5) translate(-144, -144)" fill="#000"><path xmlns="http://www.w3.org/2000/svg" d="m271.48 434.82c-4.1953 11.781-3.6641 24.73 1.4727 36.133s14.484 20.379 26.09 25.043l-21 67.328-24.652-7.6875-2.3438 7.5195 56.828 17.723 2.3438-7.5195-24.66-7.6914 21.027-67.422h.003907c12.23 2.8125 25.074.75 35.809-5.75 10.73-6.5039 18.508-16.93 21.68-29.07l24.047-121.36-67.348-21.008zm65.273 51.844c-9.6602 5.3047-21.059 6.457-31.582 3.1992-10.527-3.2617-19.277-10.652-24.25-20.488-4.9727-9.832-5.7383-21.266-2.1211-31.672l10.562-24.371c10.98 10.961 24.281 8.707 36.195 6.6719 13.965-2.3789 26.066-4.3047 37.094 10.141l-6.2383 31.488h.003906c-2.8398 10.691-9.9531 19.742-19.664 25.031zm42.277-139.18-14.426 72.816c-12.895-12.734-27.387-10.27-40.371-8.0508-12.703 2.1602-22.836 3.7461-31.383-6.957l32.34-74.598zm167.58 208.16-24.652 7.6875-21-67.328c11.648-4.6797 21.02-13.703 26.145-25.16 5.125-11.461 5.5977-24.461 1.3242-36.262l-49.203-113.51-67.348 21.008 24.105 121.62c3.0977 12.156 10.863 22.605 21.613 29.078 10.754 6.4688 23.621 8.4375 35.816 5.4805l21.027 67.422-24.66 7.6914 2.3438 7.5195 56.828-17.723zm-71.797-224.95 32.34 74.59c-8.5469 10.715-18.684 9.1289-31.387 6.9648-12.98-2.2148-27.473-4.6875-40.367 8.0508l-14.426-72.812zm-11.566 155.98c-9.6406-5.2344-16.723-14.184-19.605-24.77l-6.293-31.754c11.027-14.438 23.133-12.516 37.094-10.133 11.91 2.0352 25.223 4.2852 36.203-6.6797l10.461 24.129c3.6953 10.41 2.9922 21.879-1.9492 31.762s-13.695 17.328-24.242 20.621c-10.547 3.2891-21.98 2.1445-31.668-3.1758zm-26.039-250.39c-.57422-5.1406-3.1641-9.8398-7.2031-13.07-4.0391-3.2266-9.1914-4.7188-14.332-4.1445-5.1367.57031-9.8398 3.1641-13.066 7.2031l-2.7891 3.4883-2.4219-3.0273c-4.3516-5.4414-11.27-8.1484-18.156-7.1016-6.8867 1.043-12.691 5.6836-15.227 12.172-2.5391 6.4844-1.4219 13.832 2.9258 19.27l32.875 41.125 33.246-41.586c3.2422-4.0312 4.7344-9.1875 4.1484-14.328zm-10.297 9.418-27.094 33.891-26.727-33.43c-3.9961-5.0156-3.1797-12.316 1.8281-16.32 5.0078-4.0039 12.312-3.1992 16.324 1.8008l8.5703 10.723 8.9414-11.184c1.9258-2.4141 4.7266-3.9609 7.793-4.3047s6.1445.54688 8.5547 2.4727c2.4102 1.9258 3.957 4.7344 4.293 7.8008.33984 3.0664-.55469 6.1445-2.4844 8.5508z" fill="#c79a7b" id="svg-el-0"/></g></svg>