<svg xmlns="http://www.w3.org/2000/svg" width="400" height="400" viewBox="0 0 400 400"><g transform="translate(200, 200) translate(-128, -128) scale(0.5) translate(-144, -144)" fill="#000"><g xmlns="http://www.w3.org/2000/svg" fill="#c79a7b"><path d="m434.62 536.48c-1.4336.0-2.8281-.52344-3.9141-1.4844-15.551-13.77-29.02-30.84-40.023-50.73-10.32-18.656-18.016-38.914-22.879-60.207-3.7578-16.453-4.9844-30.777-3.7461-43.785 1.5508-16.312 7.0742-30.867 15.977-42.086 10.129-12.766 25.172-21.559 41.266-24.121 14.516-2.3086 29.859.52734 43.203 7.9844 11.285 6.3086 20.609 15.613 26.773 26.594 11.305-5.543 24.266-7.9023 37.141-6.6914 15.219 1.4336 29.457 7.8125 40.098 17.957 11.797 11.246 19.184 27.023 20.273 43.285.95703 14.289-2.7578 29.406-10.742 43.715-6.3672 11.41-15.508 22.5-27.941 33.914-16.09 14.766-33.93 27.07-53.02 36.57-20.348 10.129-41.125 16.531-61.75 19.039-.24219.03125-.47656.046875-.71484.046875zm-3.1602-211.4c-2.7617.0-5.5391.21484-8.3047.65625-13.211 2.1016-25.559 9.3203-33.871 19.797-7.4805 9.4258-12.137 21.832-13.473 35.863-1.1133 11.73.03125 24.828 3.5039 40.035 9.2852 40.668 30.082 78.02 57.238 102.94 36.5-5.0977 74.824-24.035 105.56-52.242 11.492-10.547 19.871-20.676 25.617-30.969 6.8711-12.309 10.078-25.164 9.2734-37.172-.89453-13.348-6.9609-26.297-16.641-35.527-18.074-17.234-46.891-20.035-68.512-6.6523-1.4531.89844-3.2266 1.125-4.8633.61719s-2.9648-1.6992-3.6523-3.2656c-9.0664-20.68-30.027-34.078-51.879-34.078z" fill="#c79a7b" id="svg-el-0"/><path d="m354.61 485.89c-.40234.0-.80859-.042969-1.207-.125-20.336-4.2539-40.488-12.402-59.902-24.223-18.211-11.09-34.938-24.867-49.715-40.949-11.422-12.43-19.586-24.262-24.953-36.168-6.7422-14.934-9.1562-30.312-6.9883-44.469 2.4688-16.109 11.176-31.199 23.883-41.402 11.465-9.1992 26.195-14.344 41.48-14.477 12.93-.11719 25.641 3.3438 36.434 9.8281 7.0742-10.418 17.156-18.895 28.938-24.219 13.93-6.2969 29.457-7.8164 43.727-4.2812 15.816 3.9219 30.055 13.961 39.062 27.543 4.832 7.2852 8.3086 15.699 10.328 25 .69531 3.1875-1.3281 6.3281-4.5156 7.0234-3.1875.69531-6.3281-1.3281-7.0234-4.5156-1.7109-7.8633-4.6133-14.922-8.6328-20.98-7.3945-11.152-19.078-19.391-32.062-22.609-24.242-6.0117-50.656 5.8438-62.805 28.184-.81641 1.5039-2.2461 2.5781-3.918 2.9453-1.6719.36719-3.418-.007813-4.793-1.0273-20.406-15.172-49.352-14.836-68.832.80078-10.43 8.375-17.578 20.762-19.605 33.984-1.8242 11.898.27734 24.977 6.0781 37.824 4.8477 10.742 12.332 21.547 22.887 33.035 28.223 30.719 64.801 52.852 100.73 61.035 8.9336-6.8867 17.398-14.965 25.195-24.035 2.125-2.4727 5.8516-2.7539 8.3242-.62891 2.4727 2.125 2.7539 5.8516.62891 8.3242-8.9805 10.449-18.812 19.676-29.23 27.426-1.0195.75391-2.2578 1.1562-3.5156 1.1562z" fill="#c79a7b" id="svg-el-1"/></g></g></svg>