<svg xmlns="http://www.w3.org/2000/svg" width="400" height="400" viewBox="0 0 400 400"><g transform="translate(200, 200) translate(-128, -128) scale(0.5) translate(-144, -144)" fill="#000"><g xmlns="http://www.w3.org/2000/svg" fill="#c79a7b"><path d="m270.32 323.64 21.617-28.23h-.003906c1.2734-1.6562 3.1484-2.7422 5.2188-3.0156 2.0703-.27344 4.1641.28516 5.8242 1.5547 3.4531 2.6484 4.1055 7.5898 1.4609 11.043l-21.617 28.23v-.003906c-2.6445 3.4531-7.5898 4.1055-11.043 1.4609-3.4492-2.6445-4.1055-7.5859-1.457-11.039z" fill="#c79a7b" id="svg-el-0"/><path d="m581.19 328.66-49.82-65.062c-6.1289-8.2344-15.766-13.109-26.023-13.172h-195.05c-11.59.23047-22.258 6.3672-28.293 16.266-2.6445 3.4531-1.9883 8.3984 1.4648 11.043s8.3984 1.9883 11.043-1.4648c4.293-5.6289 7.9141-10.098 15.785-10.098h53.02l-33.379 78.719h-86.27c1.8438-5.8867 4.0391-7.5195 23.012-32.273v-.003906c2.5039-3.4531 1.8008-8.2734-1.5859-10.867-3.3867-2.5977-8.2266-2.0195-10.91 1.2969l-19.625 25.617c-4.7773 6.4453-7.4531 14.211-7.6523 22.23-.20312 8.0234 2.0781 15.914 6.5273 22.59l157.44 229.92c3.7578 5.7109 10.133 9.1484 16.969 9.1484s13.211-3.4375 16.969-9.1484l157.44-229.93h-.003906c4.4609-6.668 6.75-14.551 6.5586-22.57-.19141-8.0195-2.8516-15.785-7.6211-22.234zm-62.32-55.492c51.75 67.59 51.301 65.621 53.207 71.723h-86.27l-33.379-78.719h52.918c5.3555.078125 10.363 2.6719 13.523 6.9961zm-111 311.16-61.047-223.7h122.09zm-27.457-318.16h54.914l33.355 78.719h-121.62zm-136.05 94.461h86.145l57.465 210.61c-2.1953-3.2188-142.11-207-143.61-210.61zm183.42 210.62 57.461-210.62h86.141c-1.4883 3.5977-141.41 207.4-143.62 210.62z" fill="#c79a7b" id="svg-el-1"/><path d="m226.81 258.3h-7.8711v7.875c0 4.3477-3.5234 7.8711-7.8711 7.8711s-7.8711-3.5234-7.8711-7.8711V258.3h-7.875c-4.3477.0-7.8711-3.5234-7.8711-7.8711s3.5234-7.8711 7.8711-7.8711h7.875v-7.8711c0-4.3477 3.5234-7.875 7.8711-7.875s7.8711 3.5273 7.8711 7.875v7.8711h7.8711c4.3477.0 7.875 3.5234 7.875 7.8711s-3.5273 7.8711-7.875 7.8711z" fill="#c79a7b" id="svg-el-2"/><path d="m612.54 226.81h-7.8711v7.875c0 4.3477-3.5234 7.8711-7.8711 7.8711-4.3477.0-7.875-3.5234-7.875-7.8711v-7.875h-7.8711c-4.3477.0-7.8711-3.5234-7.8711-7.8711s3.5234-7.8711 7.8711-7.8711h7.8711v-7.8711c0-4.3477 3.5273-7.875 7.875-7.875s7.8711 3.5273 7.8711 7.875v7.8711h7.8711c4.3477.0 7.8711 3.5234 7.8711 7.8711s-3.5234 7.8711-7.8711 7.8711z" fill="#c79a7b" id="svg-el-3"/><path d="m305.54 581.05h-7.8711v7.8711c0 4.3477-3.5273 7.875-7.875 7.875s-7.8711-3.5273-7.8711-7.875V581.05h-7.8711c-4.3477.0-7.8711-3.5234-7.8711-7.8711s3.5234-7.8711 7.8711-7.8711h7.8711v-7.875c0-4.3477 3.5234-7.8711 7.8711-7.8711 4.3477.0 7.875 3.5234 7.875 7.8711v7.8711h7.8711v.003906c4.3477.0 7.8711 3.5234 7.8711 7.8711s-3.5234 7.8711-7.8711 7.8711z" fill="#c79a7b" id="svg-el-4"/><path d="m581.05 494.46h-7.8711v7.875c0 4.3477-3.5234 7.8711-7.8711 7.8711s-7.875-3.5234-7.875-7.8711v-7.875h-7.8711c-4.3477.0-7.8711-3.5234-7.8711-7.8711s3.5234-7.8711 7.8711-7.8711h7.8711v-7.8711c0-4.3477 3.5273-7.8711 7.875-7.8711s7.8711 3.5234 7.8711 7.8711v7.8711h7.8711c4.3477.0 7.8711 3.5234 7.8711 7.8711s-3.5234 7.8711-7.8711 7.8711z" fill="#c79a7b" id="svg-el-5"/><path d="m281.92 289.79c0 3.1836-1.918 6.0547-4.8594 7.2734s-6.3281.54688-8.5781-1.707c-2.2539-2.25-2.9258-5.6367-1.707-8.5781s4.0898-4.8594 7.2734-4.8594c2.0859.0 4.0898.82812 5.5664 2.3047 1.4766 1.4766 2.3047 3.4805 2.3047 5.5664z" fill="#c79a7b" id="svg-el-6"/><path d="m321.28 281.92c0 3.1836-1.918 6.0547-4.8594 7.2734-2.9414 1.2188-6.3281.54297-8.5781-1.707s-2.9258-5.6367-1.707-8.5781 4.0898-4.8594 7.2734-4.8594c2.0859.0 4.0898.82812 5.5664 2.3047 1.4766 1.4766 2.3047 3.4805 2.3047 5.5664z" fill="#c79a7b" id="svg-el-7"/></g></g></svg>