<svg xmlns="http://www.w3.org/2000/svg" width="400" height="400" viewBox="0 0 400 400"><g transform="translate(200, 200) translate(-128, -128) scale(0.5) translate(-144, -144)" fill="#000"><g xmlns="http://www.w3.org/2000/svg" fill="#c79a7b"><path d="m596.71 457.46c-76.523.0-138.78 62.258-138.78 138.78.0 2.7812 2.2539 5.0391 5.0391 5.0391 2.7812.0 5.0391-2.2539 5.0391-5.0391.0-70.969 57.738-128.71 128.7-128.71 2.7812.0 5.0391-2.2539 5.0391-5.0391-.007812-2.7773-2.2617-5.0352-5.043-5.0352z" fill="#c79a7b" id="svg-el-0"/><path d="m203.74 467.54c70.969.0 128.71 57.738 128.71 128.71.0 2.7812 2.2539 5.0391 5.0391 5.0391 2.7812.0 5.0391-2.2539 5.0391-5.0391.0-76.523-62.258-138.78-138.78-138.78-2.7812.0-5.0391 2.2539-5.0391 5.0391-.003906 2.7812 2.2539 5.0352 5.0352 5.0352z" fill="#c79a7b" id="svg-el-1"/><path d="m439.28 326.19c1.043.0 2.082-.32422 2.9609-.96094 1.5508-1.125 2.3281-3.0391 2.0039-4.9258l-6.8672-40.039 29.09-28.355c1.3711-1.3398 1.8672-3.3398 1.2734-5.1641-.59375-1.8242-2.168-3.1523-4.0703-3.4297l-40.199-5.8398-17.977-36.43c-1.7031-3.4375-7.3359-3.4375-9.0391.0l-17.977 36.43-40.199 5.8398c-1.8984.27734-3.4766 1.6055-4.0703 3.4297-.59375 1.8242-.097656 3.8242 1.2734 5.1641l29.09 28.355-6.8672 40.039c-.32031 1.8906.45703 3.8008 2.0039 4.9258 1.5586 1.1289 3.6094 1.2734 5.3047.38281l35.957-18.902 35.957 18.902c.74609.38672 1.5508.57812 2.3516.57812zm-35.957-29.633c-.73437-.38672-1.5391-.57813-2.3438-.57813-.80469.0-1.6094.19141-2.3438.57813l-29.266 15.387 5.5898-32.586c.27734-1.6328-.26172-3.3008-1.4492-4.4609l-23.676-23.078 32.719-4.7539c1.6445-.23828 3.0586-1.2695 3.7969-2.7578l14.633-29.648 14.633 29.648c.73438 1.4883 2.1523 2.5195 3.7969 2.7578l32.719 4.7539-23.676 23.078c-1.1875 1.1602-1.7266 2.8281-1.4492 4.4609l5.5898 32.586z" fill="#c79a7b" id="svg-el-2"/><path d="m599.46 327.68-29.363-19.086-.92578-35.012c-.050781-1.918-1.1836-3.6367-2.9258-4.4414-1.7383-.80078-3.7891-.55078-5.2773.66016l-27.227 22.031-33.586-9.9414c-1.8281-.54688-3.8242.003906-5.1289 1.4102-1.3008 1.4062-1.6914 3.4336-1.0039 5.2227l12.535 32.703-19.832 28.867c-1.0859 1.582-1.1797 3.6406-.24219 5.3164.9375 1.6719 2.7734 2.6875 4.6562 2.5664l34.977-1.8164 21.324 27.785c.96484 1.2578 2.4492 1.9688 3.9961 1.9688.32422.0.65625-.03125.98047-.097656 1.8828-.375 3.3867-1.7852 3.8828-3.6367l9.0781-33.824 33.012-11.699c1.8086-.64062 3.0938-2.25 3.3203-4.1562.23438-1.9062-.64062-3.7734-2.25-4.8203zm-39.934 12.059c-1.5625.55469-2.7539 1.8398-3.1836 3.4414l-7.1211 26.523-16.723-21.785c-.95703-1.2461-2.4336-1.9688-3.9961-1.9688-.085938.0-.17578.003907-.26172.007813l-27.426 1.4258 15.551-22.637c.94141-1.3672 1.1445-3.1094.55078-4.6562l-9.8281-25.645 26.336 7.7969c1.5859.46094 3.3047.12891 4.5977-.91406l21.352-17.273.72656 27.453c.042969 1.6562.89844 3.1875 2.2891 4.0898l23.027 14.969z" fill="#c79a7b" id="svg-el-3"/><path d="m202.06 336.65 33.012 11.699 9.0781 33.824c.49609 1.8516 2.0039 3.2617 3.8828 3.6367.32812.0625.65625.097656.98047.097656 1.5469.0 3.0312-.71484 3.9961-1.9688l21.324-27.785 34.98 1.8164c1.9375.11328 3.7227-.89844 4.6562-2.5703.9375-1.6719.83984-3.7305-.24219-5.3125l-19.832-28.867 12.535-32.703c.6875-1.7891.29687-3.8164-1.0039-5.2227s-3.2891-1.9492-5.1289-1.4102l-33.586 9.9414-27.223-22.027c-1.4922-1.2109-3.5391-1.457-5.2773-.66016-1.7422.80469-2.875 2.5273-2.9258 4.4414l-.92188 35.012-29.363 19.086c-1.6094 1.0469-2.4805 2.9141-2.2578 4.8164.22266 1.9062 1.5078 3.5156 3.3164 4.1562zm36.016-21.055c1.3906-.90234 2.25-2.4336 2.2891-4.0898l.72266-27.453 21.352 17.273c1.293 1.0469 3.0117 1.3789 4.5977.91406l26.336-7.7969-9.832 25.645c-.59375 1.5469-.39062 3.2891.55078 4.6562l15.551 22.633-27.43-1.4258c-1.6406-.085938-3.2461.64844-4.2578 1.9648l-16.719 21.785-7.1211-26.523c-.42969-1.6016-1.6211-2.8867-3.1836-3.4414l-25.891-9.1719z" fill="#c79a7b" id="svg-el-4"/><path d="m510.71 380.48c-1.9531-1.9844-5.1406-2.0117-7.125-.058593-92.117 90.578-84.332 214.94-84.242 216.19.19141 2.6523 2.4023 4.6758 5.0195 4.6758.12109.0.24219-.003906.36719-.011719 2.7734-.19922 4.8633-2.6094 4.6641-5.3867-.085938-1.1992-7.5781-120.93 81.258-208.28 1.9844-1.9531 2.0117-5.1406.058594-7.125z" fill="#c79a7b" id="svg-el-5"/><path d="m372.31 595.88c-.19531 2.7734 1.8945 5.1875 4.668 5.3828.12109.011719.24219.015625.36328.015625 2.6211.0 4.8281-2.0234 5.0195-4.6758.089844-1.2461 7.875-125.61-84.242-216.19-1.9883-1.9531-5.1758-1.9258-7.125.058593-1.9492 1.9844-1.9219 5.1719.058594 7.125 88.715 87.234 81.344 207.09 81.258 208.28z" fill="#c79a7b" id="svg-el-6"/><path d="m4e2 492.33c2.7812.0 5.0391-2.2539 5.0391-5.0391l-.003906-149.04c0-2.7812-2.2539-5.0391-5.0391-5.0391-2.7812.0-5.0391 2.2539-5.0391 5.0391v149.04c.003907 2.7812 2.2578 5.0391 5.043 5.0391z" fill="#c79a7b" id="svg-el-7"/></g></g></svg>