<svg xmlns="http://www.w3.org/2000/svg" width="400" height="400" viewBox="0 0 400 400"><g transform="translate(200, 200) translate(-128, -128) scale(0.5) translate(-144, -144)" fill="#000"><path xmlns="http://www.w3.org/2000/svg" d="m589.07 266.26c-20.289-16.895-51.055-17.367-85.277-1.5977-16.09-34.09-39.961-53.5-66.352-53.59-6.5586-.003906-13.059 1.1836-19.191 3.5078-12.875-31.23-37.418-50.879-63.598-50.742-26.371.078124-50.223 19.523-66.359 53.609-34.164-15.824-64.945-15.273-85.254 1.5742-19.996 16.688-26.215 47.074-16.059 79.824 24.977 65.43 98.465 91.609 138.45 101.29l4.8203 21.148-.003906-.003906c1.332 4.9727 4.9141 9.0312 9.6758 10.98 4.7656 1.9453 10.168 1.5547 14.598-1.0625-.19922 7.8711-1.1836 15.699-2.9336 23.375-3.3828 16.414-.90234 33.492 7.0117 48.262 5.5586 11.238 15.48 23.258 16.168 35.188.76953 13.129-9.1641 25.691-19.41 37.43l-.003906.003906c-2.6953 3.2891-2.293 8.125.91016 10.922 3.207 2.7969 8.0508 2.543 10.945-.57422 12.391-14.195 24.391-29.648 23.27-48.715-1.4453-11.375-5.6719-22.223-12.301-31.586-10.086-13.789-14.109-31.098-11.137-47.926 2.6328-10.41 3.5195-21.188 2.625-31.891l7.8281-2.8477v-.003907c4.5312-1.6836 8.0469-5.3438 9.5391-9.9414 1.4922-4.5938.80469-9.6211-1.875-13.645l-10.113-14.973c2.4648-3.2461 5.0664-6.7812 7.7461-10.621h.003906c9.1055 20.574 20.598 40.008 34.234 57.902l-10.051 14.891c-2.6953 4.0234-3.3945 9.0586-1.9023 13.664s5.0117 8.2734 9.5508 9.9531l9.8086 3.5703.046875.11328c1.1914 1.8594 1.8047 8.2422-2.0469 28.051-3.3867 16.414-.90625 33.492 7.0117 48.262 5.5586 11.238 15.48 23.258 16.168 35.188.76953 13.129-9.1641 25.691-19.41 37.43l-.003906.003907c-2.7695 3.2812-2.3984 8.1797.83594 11.008 3.2383 2.8242 8.1406 2.5352 11.02-.65234 12.391-14.195 24.391-29.648 23.27-48.715-1.4453-11.379-5.6719-22.227-12.297-31.586-10.09-13.793-14.109-31.102-11.141-47.93 1.8281-8.2617 2.875-16.68 3.1211-25.141l.17188.0625c4.2344 1.5 8.9141 1.1289 12.863-1.0195 3.9492-2.1484 6.7969-5.875 7.8398-10.246l4.8086-21.09c39.961-9.6602 113.46-35.934 138.63-101.77 9.9883-32.27 3.7578-62.672-16.25-79.344zM345.59 417.73l-3.3672-14.012c8.1797 1.8945 16.754-.69922 22.516-6.8125l7.3906 11.121zm8.6328-32.535-.003906-.003906c-1.8867 2.3086-4.7812 3.5469-7.7539 3.3125-27.238-4.7227-118.08-25.504-144.61-94.777-8.1094-26.055-3.7773-50.066 11.258-62.582 22.277-16.688 48.727-9.2891 75.492 3.9375v-.003906c1.9492 1.0234 4.2344 1.1797 6.3008.42969 2.0664-.74609 3.7227-2.332 4.5625-4.3633 13.461-32.668 33.613-51.484 55.262-51.562 19.969-.29688 40.305 17.27 49.477 42.508-13.652 10.164-24.184 23.949-30.406 39.793-9.7344 30.629-8.9883 63.629 2.1211 93.789-6.6055 10.285-13.855 20.148-21.703 29.52zm92.34 79.738-26.543-9.6602 7.4414-11.039h-.003906c5.7344 6.0039 14.203 8.5625 22.305 6.7383zm143.89-124.47c-26.684 69.762-117.56 90.555-144.79 95.258-2.7383.48828-5.5312-.52734-7.3125-2.6641-17.82-21.098-74.074-95.434-49.855-165.55 10.559-25.113 29.23-40.695 48.758-40.695h.12891c21.633.078125 41.766 18.859 55.234 51.531.85547 2.0352 2.5195 3.6211 4.5938 4.375s4.3672.60938 6.332-.40234c31.332-16.375 58.809-17.824 75.445-3.9609 15.035 12.527 19.355 36.512 11.461 62.105z" fill="#c79a7b" id="svg-el-0"/></g></svg>