<svg xmlns="http://www.w3.org/2000/svg" width="400" height="400" viewBox="0 0 400 400"><defs xmlns="http://www.w3.org/2000/svg"><clipPath id="a"><path d="m192 148.09h416V651.9H192z"/></clipPath></defs><g transform="translate(200, 200) translate(-128, -128) scale(0.5) translate(-144, -144)"><g xmlns="http://www.w3.org/2000/svg" clip-path="url(#a)" fill="#c79a7b"><path d="m584.43 148.09H250.95c-6.0078.011719-11.77 2.4023-16.016 6.6523-4.25 4.25-6.6445 10.008-6.6523 16.02v387.93h-19.586c-4.1953.0-8.2188 1.6641-11.188 4.6289-2.9648 2.9609-4.6367 6.9844-4.6406 11.176v27.02c.046875 13.371 5.3945 26.18 14.863 35.621 9.4688 9.4414 22.293 14.746 35.664 14.758h313.22c13.371-.011719 26.191-5.3164 35.656-14.762 9.4648-9.4414 14.805-22.25 14.852-35.617v-430.76c-.011718-6.0117-2.4062-11.777-6.6602-16.027s-10.02-6.6406-16.035-6.6445zM243.39 632.21c-8.1562.0-15.98-3.2266-21.762-8.9766s-9.0547-13.559-9.0977-21.711v-23.094h293.55v23.094c-.015625 11.137 3.6758 21.965 10.496 30.773zm344.06-30.688c0 11.016-5.8789 21.195-15.418 26.703-9.543 5.5117-21.297 5.5117-30.836.0-9.543-5.5078-15.422-15.688-15.422-26.703v-27.02c-.003906-4.1914-1.6758-8.2148-4.6406-11.176-2.9688-2.9648-6.9922-4.6289-11.188-4.6289h-262v-387.93c.035156-1.6406 1.3594-2.9609 3-2.9805h333.5c1.6406.019532 2.9688 1.3398 3 2.9805z" fill="#c79a7b" id="svg-el-1"/></g><path xmlns="http://www.w3.org/2000/svg" d="m543.02 382.28H292.4c-4.9727.33203-8.8398 4.4609-8.8398 9.4453s3.8672 9.1172 8.8398 9.4492h250.62c4.9766-.33203 8.8398-4.4648 8.8398-9.4492s-3.8633-9.1133-8.8398-9.4453z" fill="#c79a7b" id="svg-el-2"/><path xmlns="http://www.w3.org/2000/svg" d="m515.18 462.54c4.9727-.33203 8.8359-4.4648 8.8359-9.4492s-3.8633-9.1133-8.8359-9.4453H320.23c-2.6172-.17578-5.1875.74219-7.1016 2.5312-1.9102 1.793-2.9961 4.2969-2.9961 6.9141.0 2.6211 1.0859 5.125 2.9961 6.9141 1.9141 1.793 4.4844 2.707 7.1016 2.5352z" fill="#c79a7b" id="svg-el-3"/><path xmlns="http://www.w3.org/2000/svg" d="m543.02 504.96H292.4c-4.9727.33203-8.8398 4.4648-8.8398 9.4492s3.8672 9.1133 8.8398 9.4453h250.62c4.9766-.33203 8.8398-4.4609 8.8398-9.4453s-3.8633-9.1172-8.8398-9.4492z" fill="#c79a7b" id="svg-el-4"/><path xmlns="http://www.w3.org/2000/svg" d="m353.82 288.49 57.141 55.105c3.7969 3.6953 9.8477 3.6953 13.645.0l57.184-55.105.23047-.25c9.3359-9.8203 14.547-22.852 14.547-36.402.0-13.551-5.2109-26.582-14.547-36.398-8.5117-8.7891-20.41-13.457-32.621-12.805-11.762.53906-22.953 5.2227-31.594 13.223-8.6172-7.9727-19.766-12.656-31.488-13.223-12.223-.65234-24.125 4.0195-32.645 12.805-9.3281 9.8203-14.531 22.852-14.531 36.398.0 13.547 5.2031 26.578 14.531 36.402zm13.898-59.387h-.003906c5.168-4.5703 11.898-6.9727 18.793-6.6992 6.8906.27344 13.41 3.2031 18.195 8.168l.52344.48438h.003906c3.1055 3.8672 7.6523 6.3008 12.594 6.7383 4.9414-.43359 9.4922-2.8672 12.594-6.7383l.52344-.48438h.003906c4.7891-4.9609 11.309-7.8867 18.199-8.1602 6.8906-.27344 13.621 2.125 18.789 6.6914 5.8125 6.1133 9.0625 14.219 9.082 22.652s-3.1953 16.555-8.9766 22.691l-50.34 48.406-50.172-48.406c-5.7734-6.1445-8.9805-14.262-8.9609-22.691.019531-8.4336 3.2656-16.535 9.0664-22.652z" fill="#c79a7b" id="svg-el-5"/></g></svg>