<svg xmlns="http://www.w3.org/2000/svg" width="400" height="400" viewBox="0 0 400 400"><defs xmlns="http://www.w3.org/2000/svg"><clipPath id="a"><path d="m149 148.09h502V651H149z"/></clipPath></defs><g transform="translate(200, 200) translate(-128, -128) scale(0.5) translate(-144, -144)"><g xmlns="http://www.w3.org/2000/svg" clip-path="url(#a)" fill="#c79a7b"><path d="m633.22 436.38c-.56641-5.0547-4.7812-8.9141-9.8633-9.0273h-106.66c28.352-31.742 43.832-72.926 43.406-115.48-.42578-42.559-16.73-83.426-45.719-114.59-29.293-30.711-69.844-48.148-112.29-48.281-43.52.23047-85.062 18.199-115.04 49.75-29.133 30.582-45.895 70.875-47.059 113.09-1.1641 42.219 13.359 83.371 40.758 115.51h-104.12c-5.0703.058594-9.2578 3.9727-9.6562 9.0273l-17.004 204.04c-.26953 2.6992.64844 5.3789 2.5195 7.3477 1.8906 2.0391 4.5625 3.1836 7.3438 3.1484h239.67.48438.48438 239.66c2.7852.035156 5.4531-1.1094 7.3477-3.1484 1.8672-1.9688 2.7891-4.6484 2.5195-7.3477zm-333.38-17.004c-26.207-28.188-40.637-65.336-40.324-103.82s15.344-75.398 42.004-103.16c26.059-27.816 62.461-43.617 100.57-43.66 37.078.039062 72.516 15.289 98.031 42.191 26.195 28.227 40.629 65.383 40.355 103.89-.27344 38.508-15.23 75.457-41.824 103.3l-8.8164 9.2383-19.102 19.734-72.422 75.152-72.004-75.152-18.895-19.734zm110.02 212.02v-49.625c0-5.4492-4.4141-9.8672-9.8633-9.8672s-9.8672 4.418-9.8672 9.8672v49.625h-219.58l7.5586-89.637h71.246c2.6914.125 5.3203-.85937 7.2695-2.7188 1.9492-1.8633 3.0508-4.4414 3.0508-7.1367s-1.1016-5.2734-3.0508-7.1367c-1.9492-1.8594-4.5781-2.8438-7.2695-2.7188h-69.777l6.2969-74.941h113.12l85.02 88.797c3.7578 3.8477 8.8945 6.0391 14.273 6.0859 5.3984.050781 10.574-2.1562 14.277-6.0859l85.648-88.797h115.89l6.2969 74.941h-69.84c-2.6914-.125-5.3203.85938-7.2695 2.7188-1.9492 1.8633-3.0508 4.4414-3.0508 7.1367s1.1016 5.2734 3.0508 7.1367c1.9492 1.8594 4.5781 2.8438 7.2695 2.7188h71.371l7.5586 89.637z" fill="#c79a7b" id="svg-el-1"/></g><path xmlns="http://www.w3.org/2000/svg" d="m399.85 395.8c25.395.042969 49.766-10.008 67.742-27.945 17.98-17.934 28.09-42.281 28.109-67.676.015625-25.395-10.062-49.754-28.02-67.711-17.953-17.957-42.312-28.043-67.707-28.031-25.395.011719-49.742 10.117-67.68 28.09-17.941 17.977-28 42.344-27.961 67.738.0625 25.316 10.145 49.574 28.043 67.477 17.898 17.902 42.156 27.992 67.473 28.059zm0-171.59c20.137-.039063 39.469 7.9258 53.734 22.137 14.266 14.215 22.305 33.512 22.34 53.652.039063 20.137-7.9258 39.465-22.141 53.73s-33.516 22.301-53.652 22.336c-20.141.035156-39.469-7.9297-53.73-22.145-14.266-14.219-22.297-33.52-22.332-53.656.039063-20.109 8.0273-39.387 22.223-53.625 14.199-14.238 33.449-22.289 53.559-22.387z" fill="#c79a7b" id="svg-el-2"/><path xmlns="http://www.w3.org/2000/svg" d="m393.34 356.59c3.7031 3.5859 9.5859 3.5859 13.289.0l38.961-37.535.25-.25c6.8438-7.2461 10.656-16.84 10.656-26.805.0-9.9688-3.8125-19.562-10.656-26.809-6.1055-5.8711-14.172-9.2695-22.641-9.5391-8.4648-.27344-16.734 2.6016-23.203 8.0703-6.4648-5.4688-14.727-8.3438-23.188-8.0742s-16.52 3.6719-22.617 9.543c-6.8789 7.2344-10.715 16.836-10.715 26.816.0 9.9844 3.8359 19.582 10.715 26.816zm-25.359-78.07c2.3945-2.4609 5.6992-3.8242 9.1328-3.7539 4.4727.089843 8.7539 1.8242 12.027 4.8672l.35938.35938c2.4375 3.3594 6.3398 5.3477 10.496 5.3477 4.1523.0 8.0547-1.9883 10.496-5.3477l.37891-.33594h-.003906c2.707-2.8672 6.4102-4.5859 10.344-4.7969 3.9375-.21094 7.8008 1.1016 10.797 3.6602 3.4336 3.6289 5.3594 8.4258 5.3828 13.422.023438 4.9961-1.8555 9.8125-5.2578 13.473l-32.137 30.961-32.121-30.961c-3.418-3.6523-5.3086-8.4688-5.2891-13.469.019531-5 1.9492-9.8008 5.3945-13.426z" fill="#c79a7b" id="svg-el-3"/></g></svg>