<svg xmlns="http://www.w3.org/2000/svg" width="400" height="400" viewBox="0 0 400 400"><g transform="translate(200, 200) translate(-128, -128) scale(0.5) translate(-144, -144)" fill="#000"><g xmlns="http://www.w3.org/2000/svg" fill="#c79a7b"><path d="m371.97 413.75v.41797h56.68V413.75zm77.566.0v.41797h105.38V413.75zm-77.566.0v.41797h56.68V413.75zm-126.9.0v.41797h106.01V413.75z" fill="#c79a7b" id="svg-el-0"/><path d="m568.04 269.95h-73.785c15.742-13.434 20.363-37.785 10.18-57.098-5.5625-10.707-14.801-18.262-25.926-21.309-3.4648-.94531-6.8242-1.3633-10.285-1.3633-7.2422.0-14.59 2.0977-20.992 6.1914-23.195 14.484-39.148 40.723-48.176 59.301-1.7852-3.5703-3.7773-7.2422-5.8789-11.23-9.4453-16.898-23.512-36.316-42.195-48.176-9.5508-5.9844-20.676-7.6602-31.383-4.8281-11.02 3.043-20.258 10.707-25.926 21.309-10.18 19.312-5.5625 43.664 10.18 57.098h-71.895c-17.215.0-31.383 14.484-31.383 32.223v79.875c0 15.008 10.078 27.711 23.723 31.172v164.58c0 17.738 14.168 32.223 31.383 32.223h278.46c22.984.0 41.562-19.207 41.562-42.719v-154.08c13.539-3.4648 23.723-16.164 23.723-31.172v-79.875c0-17.738-14.168-32.223-31.383-32.223zm-136.55-28.551c7.1367-10.391 16.059-20.258 26.555-26.871 4.7227-2.832 9.9727-3.7773 15.219-2.3086 5.457 1.5742 10.078 5.457 13.016 10.914 5.9844 11.441 2.5195 25.926-7.7656 32.434-15.848 10.078-34.637 13.434-49.75 14.484h-13.328c3.6719-7.8711 9.0273-18.473 16.164-28.551zm-3.1484 49.961v101.18h-56.785l.003907-101.29h56.785zm-77.25 122.91-.31641 174.34h-95.09c-5.7734.0-10.602-4.9336-10.602-10.914v-163.95h106.01v.41797zm0-21.309h-119.13c-.94531.0-1.9961-.10547-2.832-.41797-4.5117-1.2578-7.7656-5.457-7.7656-10.496v-79.875c0-5.9844 4.8281-10.914 10.602-10.914h118.82v101.18h.31641v.41797zm-31.488-137.5c-10.285-6.5078-13.75-20.992-7.6602-32.434 2.832-5.457 7.4531-9.2383 13.016-10.914 1.5742-.41797 3.2539-.62891 4.9336-.62891 3.5703.0 7.0312 1.0508 10.18 2.9375 20.781 13.121 35.371 39.359 42.613 55.523h-13.434c-15.008-1.0508-33.797-4.5117-49.645-14.484zm108.95 158.8-.21094 174.34h-56.785l.31641-174.34v-.41797h56.68zm126.37 153.03c0 11.754-9.3398 21.309-20.781 21.309h-84.914l.31641-174.34v-.41797h105.38v153.45zm23.723-185.25c0 5.0391-3.3594 9.1328-7.7656 10.496-.83984.31641-1.8906.41797-2.832.41797h-118.82v-101.71h118.82c5.7734.0 10.602 4.9336 10.602 10.914v79.875z" fill="#c79a7b" id="svg-el-1"/></g></g></svg>