<svg fill="#000" width="800" height="800" viewBox="144 144 512 512" xmlns="http://www.w3.org/2000/svg"><path d="m602.66 281.55c-.007812-.039063-.046875-.058594-.054688-.09375.0-.003907-.003906-.007813-.003906-.015626-.082031-.36328-.25781-.68359-.41016-1.0195-.13672-.30078-.23438-.61328-.42188-.88281-.16016-.23438-.38281-.41406-.58203-.62109-.13672-.14453-.25391-.27734-.40625-.40625-.17969-.15234-.33594-.3125-.53906-.44531-.066406-.042968-.10156-.11328-.17188-.15234-.28125-.16406-.59375-.19922-.89062-.30859-.25391-.09375-.46094-.26172-.73438-.32031-.074218-.019531-.14062.007813-.21094-.007812-.078125-.015625-.14844-.054688-.22266-.066406-.007812.0-.011718-.007813-.015624-.007813l-290.98-37.555c-1.8789-.22656-3.7148.48047-4.9023 1.9297l-121.54 147.26c-.0625.078125-.074218.17969-.13281.25781-.27344.36719-.45312.79297-.62891 1.2305-.10547.26953-.25391.51172-.31641.79688-.019532.074219-.066407.13281-.082032.20703-.082031.45703-.007812.89453.023438 1.3398.015625.20703-.058594.41016-.023438.62109l16.266 90.355c.38672 2.1445 2.0234 3.8633 4.1562 4.3438l317.95 72.25c.41406.09375.8125.14844 1.2109.14844.35938.0.73438-.039062 1.0938-.12109.46094-.09375.84375-.33203 1.2461-.52734.19141-.09375.38672-.125.56641-.23828.75391-.47656 1.3438-1.125 1.7773-1.8867.035156-.058594.10547-.082032.13672-.14453l96.258-182.63c.039063-.078125.0-.17188.035156-.25.45703-.96484.61719-2.0156.45703-3.0977-.015625-.089844.058594-.17188.039062-.26172zm-14.266 5.4219-35.57 60.219-43.555-6.9414c-.71875-.13672-1.4375-.10547-2.125.066406l-7.8633-28.164c-.39844-1.4102-1.332-2.5977-2.6133-3.3047-1.293-.70703-2.7852-.87891-4.1836-.46484l-49.227 14.426 30.422-50.645zm-244.01 35.184 27.062 8.1602-.98437 3.2539-36.496-1.0469c-2.7578-.54688-5.5273 2.2773-5.6094 5.2891-.09375 3.0117 2.2773 5.5273 5.2891 5.6094l34.082.98047c-.007812.11719.011719.23438.003907.35156l-56.43 17.535-4.4883-18.848-4.1055-17.23 8.3945-27.844 27.406-23.699 37.562 44.59c-.19531.28516-.30469.625-.48828.92188l-28.059-8.4609c-2.8516-.86719-5.9297.77344-6.793 3.6523-.86328 2.8711.76172 5.9219 3.6523 6.7852zm29.359 38.508c2.3945 2.4492 5.3477 4.4141 8.8555 5.4727l6.5859 1.9805c-9.2461 24.836-46.617 58.594-62.969 72.52l-1.4648-13.258c-.29297-2.625-2.4258-4.6641-5.0625-4.8477l-13.801-.91797c1.3281-.8125 2.6562-1.7891 3.9883-2.6562.078125-.058594.15625-.089844.23047-.15625 26.555-17.359 52.996-44.609 63.637-58.137zm12.008-4.9727c-5.3438-1.6133-8.3672-7.2734-6.7695-12.602l4.543-15.043c.78516-2.5859 2.5195-4.7148 4.9023-5.9961 1.4805-.78516 3.1055-1.1992 4.7422-1.1992.98438.0 1.9727.14844 2.9453.44141l20.223 6.0898c5.3438 1.6133 8.3672 7.2617 6.7695 12.602l-.050781.17188c-.003907.011719-.011719.015625-.015626.027344-.003906.011719.0.019531-.003906.03125l-4.4727 14.812c-.78516 2.5859-2.5195 4.7148-4.9023 5.9961-2.3711 1.2656-5.1172 1.5312-7.6758.75781h-.015625zm8.1094 27.352c2.3516-4.0312 4.3086-7.9844 5.6992-11.801l3.2734.98438c2.0117.61328 4.0625.90625 6.1016.90625 1.1641.0 2.3086-.23047 3.457-.42578-3.1406 29.355 5.293 64.531 11.398 84.855l-10.219-7.5938c-2.3711-1.7461-5.7969-1.3047-7.5938 1.0781l-5.9414 7.8203c-8.1406-31.281-8.5547-59.766-6.168-75.688.003906-.050782-.015626-.09375-.007813-.13672zm29.18-8.1641 36.691 45.016c.94531 1.1719 2.3438 1.8906 3.8516 2 .13281.0.25391.015624.37109.015624 1.3711.0 2.7188-.53516 3.7305-1.4805l32.441-30.309c.69141-.65234 1.2109-1.4922 1.4922-2.4102l.95312-3.1641c.12891.03125.23047.11719.36328.14062l25.191 4.3125-33.148 56.113-66.465-12.723c-4.0547-17.824-7.2305-39.082-5.4727-57.512zm39.023-3.7461-31.117-19.375.96875-3.207 27.191 8.1914c.51953.16016 1.0547.23828 1.5742.23828 2.3438.0 4.5156-1.5312 5.2227-3.8906.86719-2.8789-.75781-5.9297-3.6523-6.793l-27.891-8.4023c.015625-.37109.003906-.74219-.003906-1.1133l55.883-16.371 9.7539 34.891-8.3945 27.844-27.098 25.328-37.664-46.203c.03125-.054688.058593-.10938.085937-.16406l29.387 18.297c.89062.55859 1.8906.82422 2.8789.82422 1.8125.0 3.5977-.91797 4.6367-2.5859 1.582-2.5508.80859-5.9102-1.7617-7.5078zm48.184-19.691 36.613 5.8359-12.789 21.652-28.344-4.8516 5.168-17.148c.30469-.98438.30469-2.0391.039063-3.0391zm74.684-37.152-21.055 98.129-52.125 25.758zm-123.07-43.652-32.23 53.66c-2.6445-3.3633-5.957-6.1094-10.145-7.3594l-10.016-3.0195 30.43-46.113zm-153.25-19.781 119.23 15.391-29.328 44.449c-4.7891-1.2695-9.7812-.78125-14.258 1.332l-40.961-48.621c-.93359-1.1172-2.293-1.8125-3.7422-1.918-1.4805-.13281-2.8906.35937-3.9961 1.3047l-32.785 28.352c-.78516.67969-1.3594 1.5586-1.6523 2.5586l-3.8516 12.777-30.551-4.8555zm-49.965 60.535 35.434 5.6328-2.2422 7.4414c-.28125.91797-.30469 1.9062-.078125 2.8359l2.5273 10.613-50.41-8.625zm-22.785 27.605 61.176 10.465 5.0078 21.031c.34766 1.4648 1.293 2.7305 2.5977 3.4766.83984.46484 1.7734.71875 2.7031.71875.54688.0 1.0938-.078125 1.625-.25391l52.879-16.43c-11.84 13.875-34.73 36.203-56.652 50.875l-110.3-20.254zm-30.09 139.16-14.223-79.043 99.105 18.199c-2.3398 1.1523-4.7344 2.4648-6.957 3.3008-2.4102.89062-3.8516 3.3555-3.4766 5.9023.37109 2.5312 2.4648 4.4766 5.0352 4.6484l29.148 1.957 2.0781 18.785c.21484 1.9727 1.4922 3.6758 3.332 4.4375.66797.28125 1.3867.42578 2.0938.42578 1.2109.0 2.4102-.41406 3.3984-1.1875.52734-.42188 3.3477-2.6797 7.5859-6.2734l.61328 57.867zm138.68 31.512-.73828-69.828c3.5039-3.1523 7.2734-6.6289 11.211-10.418l16.328 3.1211 2.375 83.75zm37.219-104.93-8.125 17.148-9.293-1.7773c6.0469-6.2227 12.035-12.836 17.441-19.59-.019531 1.3398.011719 2.7656.023437 4.1602-.011718.019531-.035156.035157-.046875.058594zm2.9297 114.06-2.3867-84.148 1.8906.35938c1.7227 11.824 4.4102 24.457 8.4609 37.477.59766 1.9453 2.25 3.3984 4.2656 3.7422 2.1055.45312 4.0625-.44141 5.2891-2.0664l9.2734-12.203 19.73 14.656c.96094.71875 2.1055 1.0781 3.25 1.0781 1.1602.0 2.3047-.37109 3.2773-1.1055 1.9297-1.4531 2.6758-4.0117 1.8398-6.2734-.09375-.25-4.0469-10.969-8.1133-26.266l61.738 11.82 18.832 91.867zm133.61 5.1836-14.297-69.762 26.078-12.887zm11.062-.27734 12.57-88.23 29.223-14.441c1.5039-.73438 2.5703-2.1172 2.918-3.7422l4.5391-21.148 24.156-11.695zm52.152-141.1 15.684-73.117 11.957 59.734z"/></svg>