<svg xmlns="http://www.w3.org/2000/svg" width="400" height="400" viewBox="0 0 400 400"><g transform="translate(200, 200) translate(-128, -128) scale(0.5) translate(-144, -144)" fill="#000"><g xmlns="http://www.w3.org/2000/svg" fill="#c79a7b"><path d="m407.5 518.24c-15.949.0-31.422-3.125-45.992-9.2969-14.07-5.957-26.703-14.48-37.551-25.34s-19.363-23.504-25.316-37.582c-6.1641-14.582-9.2852-30.066-9.2852-46.023s3.125-31.445 9.2852-46.023c5.9492-14.082 14.469-26.727 25.316-37.582 10.848-10.859 23.484-19.383 37.551-25.34 14.57-6.168 30.043-9.293 45.988-9.293s31.422 3.125 45.988 9.293c14.07 5.957 26.703 14.48 37.551 25.34s19.363 23.504 25.316 37.582c6.1641 14.582 9.2852 30.066 9.2852 46.023s-3.125 31.445-9.2852 46.023c-5.9492 14.082-14.469 26.727-25.316 37.582-10.848 10.859-23.484 19.383-37.551 25.34-14.566 6.168-30.039 9.2969-45.984 9.2969zm0-224.68c-58.633.0-106.34 47.746-106.34 106.43s47.703 106.43 106.34 106.43c58.633.0 106.34-47.746 106.34-106.43S466.137 293.56 407.5 293.56z" fill="#c79a7b" id="svg-el-0"/><path d="m407.5 485.34c-11.512.0-22.68-2.2578-33.195-6.707-10.156-4.2969-19.273-10.453-27.102-18.289-7.8281-7.8359-13.977-16.961-18.27-27.125-4.4492-10.523-6.7031-21.699-6.7031-33.219s2.2539-22.695 6.7031-33.219c4.2969-10.164 10.441-19.289 18.27-27.125 7.832-7.8359 16.945-13.988 27.102-18.289 10.516-4.4531 21.684-6.707 33.195-6.707 11.512.0 22.68 2.2578 33.195 6.707 10.156 4.2969 19.273 10.453 27.102 18.289 7.8281 7.8359 13.977 16.961 18.27 27.125 4.4492 10.523 6.7031 21.699 6.7031 33.219s-2.2539 22.695-6.7031 33.219c-4.2969 10.164-10.441 19.289-18.27 27.125-7.832 7.8359-16.945 13.988-27.102 18.289-10.52 4.4531-21.688 6.707-33.195 6.707zm0-158.87c-40.508.0-73.465 32.984-73.465 73.531s32.953 73.531 73.465 73.531c40.508.0 73.465-32.984 73.465-73.531-.003907-40.543-32.957-73.531-73.465-73.531z" fill="#c79a7b" id="svg-el-1"/><path d="m583.02 447.96h-34.363c-3.2539.0-5.8906-2.6289-5.9023-5.8828-.054687-13.676-.10937-30.785-.16406-47.336-.050781-16.441-.10938-33.445-.16016-47.031-.007813-1.9023.85156-14.793 5.1094-30.168 5.5898-20.18 14.266-34.938 25.797-43.863 1.8359-1.4258 4.3438-1.6367 6.3906-.54297 2.0508 1.0938 3.2695 3.2891 3.1133 5.6094-.95312 14.047 1.1133 29.496 4.918 36.734.44141.83984.67578 1.7734.67578 2.7227l.48828 123.83c.007813 1.5703-.61328 3.0781-1.7227 4.1875-1.1094 1.1172-2.6094 1.7422-4.1797 1.7422zm-28.48-11.809h22.555l-.45703-116.54c-2.9727-6.4062-4.9531-15.953-5.6055-26.309-5.9492 8.5742-9.7344 18.867-12.047 27.164-3.8047 13.648-4.7305 25.578-4.7422 27.207.054687 13.586.10938 30.586.16016 47.031.042969 14.25.089844 28.918.13672 41.445z" fill="#c79a7b" id="svg-el-2"/><path d="m565.99 527.56c-5.8398.0-9.8789-1.3203-10.883-1.6836-6.2109-2.2539-11.918-8.7461-10.801-16.785.54687-3.9453 2.7539-6.4805 4.3633-8.332 2.1484-2.4688 3.1289-3.5977.96094-9.3047-2.7422-7.2266-3.2188-11.496-1.8828-16.914.39844-1.6172.83984-2.5352 1.2656-3.4258.1875-.39062.37891-.78906.62109-1.3672 1.5039-3.5898 3.043-9.6055 1.832-17.883-.035156-.23438-.070313-.46875-.10156-.69922-.30859-2.1641-.51172-3.5938-1.8789-6.7461-1.2969-2.9922.078125-6.4688 3.0703-7.7656 2.9922-1.2969 6.4688.078125 7.7656 3.0703 1.9961 4.6094 2.3672 7.2305 2.7305 9.7695.03125.21484.0625.42969.09375.65234 1.6055 10.961-.53906 19.188-2.6211 24.156-.35938.85547-.65625 1.4688-.86719 1.918-.30078.625-.33984.70703-.44531 1.1367-.5625 2.2812-.79297 3.9766 1.457 9.9023 1.9805 5.2188 2.4492 9.6328 1.4375 13.488-.96094 3.6523-3.0234 6.0234-4.5312 7.7578-.8125.93359-1.5117 1.7383-1.5781 2.207-.35547 2.5781 3.1016 4.0508 3.1328 4.0625 1.8672.67969 6.9609 1.6133 12.875.30859 1.8906-.41797 2.0234-3.7891 2.0234-4.8125l-.26953-68.082c-.011718-3.2617 2.6211-5.9141 5.8828-5.9258h.023437c3.25.0 5.8906 2.6289 5.9023 5.8828l.26953 68.082c.035156 8.5664-4.2891 14.848-11.285 16.391-3.125.6875-6.0156.94141-8.5625.94141z" fill="#c79a7b" id="svg-el-3"/><path d="m246.46 527.55c-4.2695.0-8.2539-1.6758-11.234-4.7227-2.9492-3.0156-4.5273-6.9922-4.4453-11.199l.98047-143.59c.023437-3.2461 2.6602-5.8633 5.9023-5.8633h.042969c3.2578.023437 5.8867 2.6836 5.8633 5.9453l-.98047 143.64c0 .03125.0.0625-.003906.089844-.023438 1.0234.36328 1.9883 1.082 2.7266.73828.75391 1.7305 1.168 2.793 1.168s2.0547-.41406 2.793-1.168c.72266-.73438 1.1055-1.7031 1.082-2.7266.0-.03125.0-.0625-.003907-.089844l-.98047-143.64c-.023437-3.2578 2.6016-5.9219 5.8633-5.9453h.042968c3.2422.0 5.8828 2.6172 5.9023 5.8633l.98047 143.6c.082031 4.207-1.5 8.1797-4.4453 11.195-2.9805 3.0469-6.9688 4.7227-11.234 4.7227z" fill="#c79a7b" id="svg-el-4"/><path d="m251.13 373.98h-9.3438c-16.938.0-30.719-13.781-30.719-30.719v-5.5234c0-3.2617 2.6406-5.9023 5.9023-5.9023h58.973c3.2617.0 5.9023 2.6406 5.9023 5.9023v5.5234c0 16.938-13.781 30.719-30.715 30.719zm-28.25-30.34c.20313 10.25 8.6055 18.527 18.906 18.527h9.3438c10.301.0 18.699-8.2773 18.906-18.527z" fill="#c79a7b" id="svg-el-5"/><path d="m216.97 343.64c-3.2617.0-5.9023-2.6406-5.9023-5.9023v-59.383c0-3.2617 2.6406-5.9023 5.9023-5.9023s5.9023 2.6406 5.9023 5.9023v59.387c.003906 3.2578-2.6406 5.8984-5.9023 5.8984z" fill="#c79a7b" id="svg-el-6"/><path d="m236.63 343.64c-3.2617.0-5.9023-2.6406-5.9023-5.9023v-59.383c0-3.2617 2.6406-5.9023 5.9023-5.9023s5.9023 2.6406 5.9023 5.9023v59.387c.003906 3.2578-2.6406 5.8984-5.9023 5.8984z" fill="#c79a7b" id="svg-el-7"/><path d="m256.29 343.64c-3.2617.0-5.9023-2.6406-5.9023-5.9023l-.003907-59.383c0-3.2617 2.6406-5.9023 5.9023-5.9023s5.9023 2.6406 5.9023 5.9023v59.387c.003906 3.2578-2.6367 5.8984-5.8984 5.8984z" fill="#c79a7b" id="svg-el-8"/><path d="m275.95 343.64c-3.2617.0-5.9023-2.6406-5.9023-5.9023v-59.383c0-3.2617 2.6406-5.9023 5.9023-5.9023s5.9023 2.6406 5.9023 5.9023v59.387c0 3.2578-2.6445 5.8984-5.9023 5.8984z" fill="#c79a7b" id="svg-el-9"/><path d="m407.5 438.02c-.82812.0-1.6523-.17188-2.4219-.51953-12.434-5.5938-23.512-15.957-31.191-29.172-2.8945-4.9844-4.7617-9.5742-5.6992-14.035-1.2266-5.8242-.85938-11.52 1.0508-16.465 2.2148-5.7305 6.6406-10.578 12.145-13.301 8.375-4.1484 18.566-3.0898 26.117 2.2539 7.5469-5.3438 17.738-6.4023 26.117-2.2539 5.5039 2.7266 9.9297 7.5742 12.145 13.301 1.9102 4.9453 2.2773 10.641 1.0508 16.465-.9375 4.4609-2.8008 9.0547-5.6992 14.035-7.6797 13.219-18.758 23.578-31.191 29.172-.76953.34766-1.5977.51953-2.4219.51953zm-15.117-64.227c-1.9922.0-3.9688.42188-5.7578 1.3086-2.8867 1.4297-5.207 3.9727-6.3672 6.9766-1.3711 3.5508-1.0312 7.2773-.50781 9.7812.67578 3.2109 2.0977 6.6562 4.3516 10.535 5.8438 10.059 14.27 18.367 23.406 23.16 9.1328-4.793 17.559-13.098 23.406-23.16 2.2539-3.8789 3.6758-7.3242 4.3516-10.535.52734-2.5.86328-6.2305-.50781-9.7812-1.1602-3.0039-3.4844-5.5469-6.3672-6.9766-5.3516-2.6484-12.41-1.168-16.418 3.4531-1.1211 1.293-2.7461 2.0352-4.4609 2.0352-1.7109.0-3.3398-.74219-4.4609-2.0352-2.6797-3.0742-6.7031-4.7617-10.668-4.7617z" fill="#c79a7b" id="svg-el-10"/></g></g></svg>