<svg xmlns="http://www.w3.org/2000/svg" width="400" height="400" viewBox="0 0 400 400"><g transform="translate(200, 200) translate(-128, -128) scale(0.5) translate(-144, -144)" fill="#000"><path xmlns="http://www.w3.org/2000/svg" d="m244.21 425.64c-6.918 2.7383-12.477 8.0938-15.469 14.906l-1.6055 3.582 3.5781 1.6211c2.9023 1.3086 6.0469 1.9805 9.2305 1.9766 2.9141-.007812 5.8047-.54688 8.5273-1.5898 6.918-2.7383 12.48-8.0938 15.473-14.906l1.6094-3.582-3.582-1.6211v-.003907c-5.6289-2.5-12.027-2.6406-17.762-.38281zm1.4727 13.137c-2.3594.90625-4.9023 1.2422-7.4141.97656 2.2031-3.0391 5.2344-5.3828 8.7305-6.75 2.3594-.91406 4.9023-1.2539 7.418-.98438-2.207 3.0391-5.2383 5.3867-8.7344 6.7578zm196.2-54.098-6.9727 3.6602c-1.4531-2.7734-2.8203-5.6016-4.1016-8.4805l7.1953-3.1992c1.2109 2.7305 2.5039 5.4062 3.8789 8.0195zm-19.336-131.02c-18.773-.03125-37.387 3.4297-54.895 10.203-2.8945-3.8281-7.2695-6.2578-12.047-6.6914-4.7812-.43359-9.5234 1.168-13.059 4.4102-3.5391 3.2422-5.5469 7.8281-5.5273 12.625.046875 2.2539.35156 4.4961.89844 6.6797-2.1875-.54688-4.4258-.84766-6.6797-.89844-4.5352.003907-8.8828 1.8086-12.09 5.0156-3.207 3.207-5.0117 7.5547-5.0156 12.09.023438.77344.10156 1.5469.23438 2.3086-15.207 15.789-26.562 34.875-33.188 55.773-.47266-.25-.91406-.54688-1.418-.75391v-.003906c-4.1914-1.7266-8.9023-1.7227-13.09.019531-4.1875 1.7383-7.5117 5.0703-9.2461 9.2656-1.7305 4.1914-1.7266 8.8984.011719 13.086.91016 2.0625 2.0469 4.0195 3.3945 5.8281-2.2305.33203-4.4141.91016-6.5117 1.7305-5.6445 2.3438-9.6094 7.5234-10.398 13.582-.79297 6.0586 1.707 12.082 6.5625 15.797 4.8516 3.7148 11.316 4.5625 16.961 2.2148 2.0625-.91016 4.0156-2.0508 5.8242-3.3984.058594.35938.14844.67188.21484 1.0234v159.45l-7.9102.003906v7.8711h68.883v-7.8711h-29.684v-85.254c37.73-13.906 68.438-43.738 91.449-88.664v-.003906c24.848 36.211 62.773 61.367 105.8 70.168.09375 4.8672 1.0977 9.6758 2.957 14.176 1.9141 3.1602 4.3047 6.0078 7.082 8.4453-12.422 25.074-15.258 31.035-19.168 81.238l-17.926.0625.03125 7.8711 65.324-.23828v.070313h31.289l-.003907-178.17c-.042968-39.52-15.762-77.406-43.707-105.35-27.945-27.945-65.832-43.664-105.35-43.707zm109.11 215.84v-.003906c-.5625-1.0664-.68359-2.3164-.33594-3.4727.54688-1.8281 2.2266-3.082 4.1328-3.0898 1.6992.011718 3.25.96484 4.0273 2.4727.58203 1.043.71484 2.2734.375 3.418-.33984 1.1406-1.1289 2.0977-2.1875 2.6484-1.0547.55078-2.2891.65234-3.4219.28125-1.1328-.37109-2.0664-1.1836-2.5898-2.2578zm8.668-35.422c-24.738-36.629-41.234-72.441-42.941-119.88h-.003906c27.191 22.34 42.949 55.684 42.945 90.875zm7.3594 31.566h-.003906c-.1875-1.3555-.60156-2.668-1.2227-3.8867l-.003907-.007812c-.64844-1.2031-1.4883-2.293-2.4922-3.2188l8.2422-10.629c2.6328 2.0586 4.8984 4.543 6.7031 7.3516 1.2812 3.0781 2.0234 6.3555 2.2031 9.6836zm.51562 107.27-.003906-99.422 15.543-.8125v100.18zm-125.65-311.38c37.434.042969 73.32 14.93 99.789 41.398s41.355 62.359 41.398 99.789v45.875c-3.2617-4.2578-9.6875-11.273-14.977-8.5234l-.57031.70703.003906-35.703c.03125-39.41-18.441-76.543-49.891-100.29-31.449-23.746-72.223-31.348-110.12-20.531-3.082-2.7305-7.0547-4.2461-11.176-4.2617-2.2539.050781-4.4922.35156-6.6797.89844.55078-2.1836.85156-4.4258.89844-6.6797-.007812-1.0547-.11328-2.1094-.31641-3.1445 16.48-6.3242 33.984-9.5547 51.637-9.5312zm-45.539 26.328c5.0898.015625 9.207 4.1445 9.207 9.2344s-4.1172 9.2188-9.207 9.2305c-3.9023-.25391-7.7305-1.2031-11.301-2.8047l-2.3242-.98828c2.0312-3.3359 2.0352-7.5312.003906-10.871l2.3203-.98828v.003906c3.5703-1.6055 7.3984-2.5586 11.301-2.8164zm-22.887 6.3203h.003906c1.1758.0 2.2383.71094 2.6914 1.7969.44922 1.0898.19922 2.3438-.63281 3.1758-.83203.83594-2.0859 1.082-3.1758.63281-1.0898-.44922-1.7969-1.5117-1.7969-2.6914.0-1.6094 1.3047-2.9141 2.9141-2.9141zm-6.4219 14.5.98828-2.3203v-.003906c3.3398 2.0312 7.5273 2.0312 10.867.003906l.99219 2.3281c1.6016 3.5664 2.5547 7.3906 2.8086 11.293-.015624 5.0859-4.1445 9.2031-9.2305 9.2031-5.0898.0-9.2188-4.1172-9.2344-9.2031.25781-3.9062 1.2109-7.7305 2.8086-11.301zm6.4219-43.703h.003906c5.0938.003907 9.2227 4.1367 9.2305 9.2305-.25391 3.9062-1.207 7.7305-2.8086 11.301l-.98828 2.3203c-3.3398-2.0273-7.5352-2.0273-10.871.003906l-.98828-2.3164c-1.6016-3.5742-2.5508-7.4023-2.8086-11.309.007812-5.0938 4.1367-9.2266 9.2344-9.2305zm-22.887 22.887.003906-.003906c3.9023.25781 7.7305 1.2109 11.301 2.8164l2.3203.98828v-.003906c-2.0312 3.3398-2.0273 7.5312.003906 10.871l-2.3242.98828c-3.5703 1.6016-7.3984 2.5508-11.301 2.8047-5.0898-.011719-9.207-4.1406-9.207-9.2305s4.1172-9.2188 9.207-9.2344zm0 26.336h.003906c2.2539-.050781 4.4961-.35156 6.6836-.90234v.007813c-.90234.23437-1.7344.67187-2.4336 1.2852l-.058594-.0625-.82422.83203c-.51953.47656-1.0586 1-1.6211 1.5625l.03125.03125-1.1602 1.168v-.003906c-12.648 13.672-22.344 29.801-28.48 47.383-2.3281-.039062-4.6367.40234-6.7891 1.2891-2.0625.91016-4.0156 2.0508-5.8242 3.3984-.33203-2.2305-.91406-4.4141-1.7305-6.5117-.39453-.92188-.87109-1.8086-1.418-2.6484 5.7461-19.957 16.043-38.305 30.086-53.602 3.207 4.25 8.2148 6.7539 13.539 6.7734zm-26.465 125.92.003906-17.809c3.4102-4.7695 4.0977-10.969 1.8203-16.371-.90625-2.0625-2.0469-4.0195-3.3906-5.8281 2.2266-.33594 4.4102-.91406 6.5117-1.7305 4.1836-1.75 7.5039-5.0859 9.2344-9.2773 1.7305-4.1953 1.7266-8.9023-.003906-13.094-1.5391-3.6602-4.3203-6.6602-7.8516-8.4766 4.1055-11.719 9.9258-22.77 17.27-32.781 1.6602 36.594-6.4844 72.969-23.59 105.36zm6.8984-61.086h.003907c1.9492 4.7109-.27734 10.109-4.9805 12.078-3.7109 1.2266-7.6016 1.8125-11.508 1.7344l-2.6719-.023437c.78906-3.8438-.84375-7.7773-4.125-9.9297l1.8633-1.9062c2.6836-2.8477 5.8516-5.1914 9.3594-6.9258 4.7031-1.957 10.105.26953 12.062 4.9727zm-26.961 11.215c.61328 1.4883-.089844 3.1875-1.5742 3.8047-.71094.30859-1.5195.30859-2.2305.0-.71484-.28906-1.2812-.85156-1.5742-1.5664-.29688-.71484-.30078-1.5195-.003907-2.2344.29688-.71484.86328-1.2812 1.5781-1.5781.71094-.29688 1.5117-.29688 2.2227.0.71875.28906 1.2891.85547 1.582 1.5742zm-4.1797 14.277.023437-2.6602h.003906c.48047.12891.96875.22656 1.4648.29297 1.418-.003906 2.8242-.28516 4.1328-.83203 1.7461-.78516 3.2422-2.0273 4.3359-3.5938l1.9062 1.8633h-.003906c2.8555 2.6836 5.1992 5.8555 6.9336 9.3633 1.9258 4.7031-.30859 10.082-5.0039 12.027-4.6914 1.9492-10.078-.26172-12.047-4.9453-1.2656-3.7031-1.8555-7.6055-1.7422-11.516zm-15.824-37.816c1.4219-3.4531 4.7891-5.707 8.5234-5.7109s7.1055 2.2461 8.5352 5.6953c1.2617 3.7031 1.8516 7.5977 1.7383 11.508l-.023438 2.6641h.003906c-1.8828-.33203-3.8164-.14844-5.6016.53516-1.7656.74609-3.2969 1.9531-4.4375 3.4922l-1.8047-1.7656.003907.003906c-2.8516-2.6836-5.1992-5.8555-6.9297-9.3633-.94922-2.2578-.95312-4.8008-.007812-7.0586zm-.27734 41.957v.003906c-2.2656.94922-4.8125.96094-7.082.027344-2.2734-.93359-4.0781-2.7305-5.0195-5-.94141-2.2656-.94141-4.8125.0-7.082.94141-2.2656 2.7461-4.0664 5.0156-4.9961 3.6953-1.2891 7.5977-1.8789 11.508-1.7383l2.5273.023438h.003906c-.64453 3.8594 1.0234 7.7422 4.2656 9.9297l-1.8633 1.9062c-2.6836 2.8477-5.8516 5.1914-9.3555 6.9297zm16.934 164.34-.003907-146.27c4.5898 3.0859 10.402 3.7227 15.547 1.6992v144.58zm23.418-93.754v-7.0781h-.003907c12.723-7.3477 23.66-17.422 32.035-29.492l-6.25-4.7812c-7.043 9.8594-15.77 18.395-25.785 25.215v-6.6953c24.004-39.23 34.918-85.078 31.164-130.92.52344-.58984.98047-1.2461 1.5117-1.8203.90625 4.1797 3.3555 7.8672 6.8594 10.32 3.5039 2.457 7.8047 3.5 12.047 2.9219 4.2383-.57813 8.1055-2.7305 10.824-6.0352.0625.25781.11719.52344.17969.78125l.003906.003907c-.25781 17.547-3.6953 34.902-10.152 51.223l7.1797 3.2305v-.003906c4.5938-10.695 7.6211-22 8.9883-33.559 4.5664 13.578 10.594 26.625 17.977 38.902-21.758 44.289-50.887 73.715-86.582 87.785zm66.832-165.72h-.003907c1.7773.39063 3.5859.61328 5.4023.66016 4.5352-.003907 8.8828-1.8086 12.09-5.0156 3.207-3.207 5.0117-7.5547 5.0156-12.09-.015625-2.043-.39844-4.0664-1.1328-5.9727 33.082-8.6719 68.301-2.4297 96.391 17.086.51562 56.602 20.711 96.98 50.949 139.73v2.6523l-3.6562 4.5547v-.003906c-2.1016-.20312-4.2188.14844-6.1406 1.0156-11.117-8.8906-28.188-24.02-41.992-62.129l-7.4023 2.6758v-.003906c6.3555 19.289 16.562 37.082 30.004 52.305-27.453-11.691-50.418-31.902-65.504-57.645l-6.75 4.043c18.504 31.238 47.66 54.754 82.109 66.223l-13.551.71484c-42.723-8.4453-116.51-39.055-135.83-148.8zm138.14 156.56 13.719-.72656c.37109 2.6445 1.6484 5.082 3.6094 6.8945l-8.4219 10.859c-2.6328-2.0508-4.8984-4.5312-6.7031-7.332-1.2734-3.0859-2.0195-6.3633-2.2031-9.6953zm-8.9609 102.99c3.7461-47.973 6.2266-53.289 18.262-77.582.13672.007813.30469.070313.4375.070313h-.003906c.91406.007813 1.8125-.20703 2.6172-.63281l5.7617-7.1758h.003906c-3.168 14.902-4.5625 30.129-4.1484 45.359l7.8711-.18359c-.27734-11.961.74609-44.887 8.625-54.082l.10547-.039062v94.121zm-223.21-267.73.66016 3.3125c-.92969-.74609-1.9141-1.4219-2.9492-2.0195-6.1602-3.3047-13.375-4.0391-20.074-2.0508l-3.7734 1.082 1.0781 3.7812h-.003906c1.6289 5.5664 5.418 10.242 10.523 12.992 3.8086 2.082 8.0859 3.1641 12.43 3.1367 2.582-.003906 5.1523-.36719 7.6328-1.082l3.7734-1.082-1.0781-3.7734.003906-.003906c-1.1914-4.1328-3.6055-7.8086-6.9258-10.543l3.3242-.65625c5.6797-1.1562 10.66-4.5391 13.82-9.3945 3.8047-5.8633 5.1367-12.992 3.7109-19.836l-.76953-3.8516-3.8516.76172c-5.6797 1.1562-10.656 4.5391-13.82 9.3945-3.8047 5.8633-5.1367 12.992-3.7109 19.832zm-10.723 10.211c-1.8789-1.0195-3.5039-2.4453-4.7656-4.168 3.2617-.14453 6.5039.59375 9.3828 2.1367 1.8711 1.0234 3.4961 2.4453 4.7578 4.168-3.2617.13672-6.4961-.60156-9.375-2.1367zm20.98-25.668h-.003906c1.1758-1.7812 2.7305-3.2812 4.5469-4.3984-.10938 3.2695-1.1133 6.4414-2.9023 9.1797-1.1758 1.7812-2.7305 3.2812-4.5508 4.3984.11328-3.2695 1.1172-6.4453 2.9062-9.1797zm-32.312-2.0078c3.8125 2.082 8.0898 3.1602 12.434 3.1367 2.5859-.003906 5.1562-.36719 7.6367-1.082l3.7734-1.082-1.0781-3.7734.003906-.003906c-1.625-5.5625-5.4102-10.246-10.512-13-6.1602-3.3008-13.371-4.0352-20.074-2.0508l-3.7734 1.082 1.0781 3.7734c1.625 5.5664 5.4102 10.246 10.512 13zm8.4414-8.918c1.875 1.0234 3.5 2.4453 4.7578 4.168-3.2617.13672-6.5-.60156-9.3828-2.1367-1.875-1.0195-3.5-2.4453-4.7578-4.168 3.2617-.13672 6.5.60156 9.3828 2.1367zm108-26.512 3.8516-.76172c5.75-1.1719 10.789-4.5977 13.992-9.5117 3.8516-5.9414 5.1992-13.164 3.75-20.094l-.76953-3.8438-3.8516.76172h.003906c-5.7461 1.1719-10.785 4.5977-13.988 9.5078-3.8477 5.9414-5.1992 13.16-3.7539 20.09zm9.5312-19.566h.003906c1.2148-1.8477 2.832-3.3984 4.7266-4.5352-.097656 3.3633-1.1211 6.6367-2.9648 9.457-1.2188 1.8438-2.832 3.3945-4.7266 4.5352.097656-3.3672 1.1211-6.6406 2.9648-9.457zm50.047 339.94.046875 7.8711-27.812.16797-.046875-7.8711zm25.816.33984h9.4492v7.8711h-9.4492zm-17.617.0h9.4492v7.8711h-9.4492zm-99.906-148.25 6.5195 4.4141c-1.6094 2.3828-3.2305 4.7188-4.8594 6.9883l-6.3945-4.582c1.5898-2.2227 3.1641-4.5 4.7344-6.8203z" fill="#c79a7b" id="svg-el-0"/></g></svg>