<svg xmlns="http://www.w3.org/2000/svg" width="400" height="400" viewBox="0 0 400 400"><g transform="translate(200, 200) translate(-128, -128) scale(0.5) translate(-144, -144)" fill="#000"><path xmlns="http://www.w3.org/2000/svg" d="m507.68 325.12v-23.523h-39.859l-67.816-40.012-67.82 40.012h-39.859v23.523l-43.016 25.379v188.37H550.7v-188.37zm31.332 27.629-31.332 18.488v-36.98zm-139.01-82.023 52.324 30.871h-104.65zm99.805 38.742v66.41l-55.629 32.82c-1.5117-3.2383-3.7422-6.0938-6.5234-8.3438-4.9375-3.9336-11.23-5.75-17.504-5.0508-6.2734.69922-12.016 3.8594-15.965 8.7852l-4.4219 5.5273-3.9531-4.9414.003906-.003906c-3.9492-4.9219-9.6914-8.082-15.965-8.7773-6.2734-.69922-12.57 1.1172-17.508 5.0508-2.6523 2.1367-4.8086 4.8242-6.3242 7.875l-55.824-32.938v-66.414zm-64.566 119.44-35.473 44.379-35.004-43.789-.003907.003906c-3.543-4.4492-4.4492-10.453-2.375-15.75 2.0742-5.2969 6.8164-9.0859 12.441-9.9453 5.6211-.85938 11.277 1.3477 14.84 5.7852l10.102 12.629 10.57-13.215c3.5547-4.4492 9.2109-6.6602 14.844-5.8086 5.6289.85547 10.375 4.6484 12.449 9.9531 2.0781 5.3047 1.1641 11.309-2.3906 15.758zm-142.92-57.676-31.332-18.488 31.332-18.488zm-35.145 159.76v-171.35l96.457 56.914v-.003907c-.83594 6.3867.96094 12.836 4.9766 17.871l41.156 51.477 41.625-52.066h-.003906c3.9023-4.8867 5.7188-11.113 5.0547-17.328l96.379-56.863v171.35zm211.41-143.08h-137.17v-7.8711h137.17zm0-23.617h-137.17v-7.8711h137.17zm0-23.617-137.17.003907v-7.8711l137.17-.003906zm53.863 171.79h8.1406v7.8711l-8.1406.003906zm-15.188.0h8.1445v7.8711l-8.1445.003906zm15.188-13.715h8.1406v7.8711l-8.1406.003906z" fill="#c79a7b" id="svg-el-0"/></g></svg>